STARTFONT 2.3
FONT -FontForge-Syncopate-Book-R-Normal--20-200-72-72-P-150-ISO10646-1
SIZE 20 72 72  4
FONTBOUNDINGBOX 37 24 -4 -5
COMMENT "Generated by fontforge, http://fontforge.sourceforge.net"
COMMENT "Copyright (c) 2010 by Brian J. Bonislawsky DBA Astigmatic (AOETI). All rights reserved. Available under the Apache 2.0 licence.http://www.apache.org/licenses/LICENSE-2.0.html"
STARTPROPERTIES 40
FOUNDRY "FontForge"
FAMILY_NAME "Syncopate"
WEIGHT_NAME "Book"
SLANT "R"
SETWIDTH_NAME "Normal"
ADD_STYLE_NAME ""
PIXEL_SIZE 20
POINT_SIZE 200
RESOLUTION_X 72
RESOLUTION_Y 72
SPACING "P"
AVERAGE_WIDTH 150
CHARSET_REGISTRY "ISO10646"
CHARSET_ENCODING "1"
FONTNAME_REGISTRY ""
CHARSET_COLLECTIONS "ISO8859-2 ISO8859-9 ISO8859-4 ISO10646-1"
BITS_PER_PIXEL 4
FONT_NAME "Syncopate-Regular"
FACE_NAME "Syncopate Regular"
COPYRIGHT "Copyright (c) 2010 by Brian J. Bonislawsky DBA Astigmatic (AOETI). All rights reserved. Available under the Apache 2.0 licence.http://www.apache.org/licenses/LICENSE-2.0.html"
FONT_VERSION "001.001"
FONT_ASCENT 16
FONT_DESCENT 4
UNDERLINE_POSITION -2
UNDERLINE_THICKNESS 1
X_HEIGHT 13
CAP_HEIGHT 13
RAW_ASCENT 799
RAW_DESCENT 200
NORM_SPACE 8
RELATIVE_WEIGHT 40
RELATIVE_SETWIDTH 70
SUPERSCRIPT_X 0
SUPERSCRIPT_Y 5
SUPERSCRIPT_SIZE 4
SUBSCRIPT_X 0
SUBSCRIPT_Y 5
SUBSCRIPT_SIZE 4
AVG_LOWERCASE_WIDTH 172
AVG_UPPERCASE_WIDTH 164
ENDPROPERTIES
CHARS 370
STARTCHAR space
ENCODING 32
SWIDTH 375 0
DWIDTH 8 0
BBX 1 1 0 0
BITMAP
00
ENDCHAR
STARTCHAR exclam
ENCODING 33
SWIDTH 274 0
DWIDTH 6 0
BBX 2 14 2 0
BITMAP
F8
F8
F7
E7
E6
D5
C5
C4
B3
A3
00
00
F8
F8
ENDCHAR
STARTCHAR quotedbl
ENCODING 34
SWIDTH 290 0
DWIDTH 6 0
BBX 6 4 0 10
BITMAP
4F14F1
3F03F0
3F03F0
2E02E0
ENDCHAR
STARTCHAR numbersign
ENCODING 35
SWIDTH 701 0
DWIDTH 14 0
BBX 12 14 1 0
BITMAP
000095000960
0000D2000C30
0001E0001E00
0004B0004B00
0DFFFFFFFFFF
000A5000A500
000D1000D200
002D0001D000
005A0004A000
FFFFFFFFFFE0
00B4000B4000
00E1000E1000
02C0002D0000
069000590000
ENDCHAR
STARTCHAR dollar
ENCODING 36
SWIDTH 767 0
DWIDTH 15 0
BBX 13 16 1 -1
BITMAP
000000D1000000
0049DEFEDA6100
09E731D2259900
3F2000D1000000
5D0000D1000000
2F6000D1000000
04DB61D1000000
0005AEF8400000
000000D8CD7100
000000D103BD10
000000D1000B80
000000D10008A0
000000D1000C70
4A6321D226CB00
048BEFFEDA5000
000000D1000000
ENDCHAR
STARTCHAR percent
ENCODING 37
SWIDTH 992 0
DWIDTH 20 0
BBX 17 14 1 0
BITMAP
04BED91000003E3000
4E5129D10001D60000
D60000C7000A900000
F3000099007C000000
D60000C704E2000000
4E5129D11D50000000
04BED910B800000000
00000008C019DEB400
0000004E21D9215E50
000002E406C00005D0
00000C7008900002F0
00009B0006C00005D0
0005D10001D9215E50
002E30000019DEC400
ENDCHAR
STARTCHAR ampersand
ENCODING 38
SWIDTH 926 0
DWIDTH 19 0
BBX 16 14 1 0
BITMAP
00017CEED8100000
000CB4113BB00000
005E000003F10000
005D000009B00000
001E4002BB100000
0006D39D50000000
0003DF8000000000
008C45E4000000C6
0AA0003D700001F2
4E100001AB1006B0
6C00000006D41D30
3F300000002DD800
07E8410125BB5D50
0038CEFEC93003D9
ENDCHAR
STARTCHAR quotesingle
ENCODING 39
SWIDTH 140 0
DWIDTH 3 0
BBX 3 4 0 10
BITMAP
4F10
3F00
3F00
2E00
ENDCHAR
STARTCHAR parenleft
ENCODING 40
SWIDTH 420 0
DWIDTH 8 0
BBX 6 16 1 -1
BITMAP
0001B2
001DA0
00AB00
04E200
0A9000
1F4000
4F1000
5E0000
5E0000
4F1000
1F4000
0B9000
04E200
00AB00
001DA0
0001B2
ENDCHAR
STARTCHAR parenright
ENCODING 41
SWIDTH 420 0
DWIDTH 8 0
BBX 5 16 2 -1
BITMAP
A50000
5E5000
05E200
00AA00
003F20
000D70
0009A0
0007C0
0007C0
0009A0
000D70
003F20
00AB00
05E200
5F6000
A50000
ENDCHAR
STARTCHAR asterisk
ENCODING 42
SWIDTH 503 0
DWIDTH 10 0
BBX 8 8 1 6
BITMAP
00078000
32078024
6E7676E7
019EEA20
019EEA20
6E7676E7
32078024
00078000
ENDCHAR
STARTCHAR plus
ENCODING 43
SWIDTH 634 0
DWIDTH 13 0
BBX 10 9 1 2
BITMAP
00003D0000
00003D0000
00003D0000
00003D0000
5FFFFFFFFF
00003D0000
00003D0000
00003D0000
00003D0000
ENDCHAR
STARTCHAR comma
ENCODING 44
SWIDTH 185 0
DWIDTH 4 0
BBX 3 4 0 -2
BITMAP
0CB0
0F60
3F20
6C00
ENDCHAR
STARTCHAR hyphen
ENCODING 45
SWIDTH 540 0
DWIDTH 11 0
BBX 9 1 1 6
BITMAP
6FFFFFFF30
ENDCHAR
STARTCHAR period
ENCODING 46
SWIDTH 185 0
DWIDTH 4 0
BBX 2 2 1 0
BITMAP
FB
FB
ENDCHAR
STARTCHAR slash
ENCODING 47
SWIDTH 500 0
DWIDTH 10 0
BBX 8 14 1 0
BITMAP
0000008A
000001E3
000007B0
00000E40
00006B00
0000D400
0005C000
000C5000
004D0000
00C60000
04E00000
0B700000
3E100000
A8000000
ENDCHAR
STARTCHAR zero
ENCODING 48
SWIDTH 833 0
DWIDTH 17 0
BBX 15 14 1 0
BITMAP
00016BEFDA400000
003DA41027DA1000
03E50000001AC000
0D7000000000C800
5E00000000005E10
9900000000000F40
B700000000000D60
B700000000000D60
9900000000000F40
5E00000000004E10
0D7000000000C800
03E50000001AC000
003DA41026DA1000
00016BEFDA400000
ENDCHAR
STARTCHAR one
ENCODING 49
SWIDTH 339 0
DWIDTH 7 0
BBX 5 14 0 0
BITMAP
27CF60
D83C60
000C60
000C60
000C60
000C60
000C60
000C60
000C60
000C60
000C60
000C60
000C60
000C60
ENDCHAR
STARTCHAR two
ENCODING 50
SWIDTH 728 0
DWIDTH 15 0
BBX 14 14 0 0
BITMAP
0016BEFEC93000
05D8410137E900
19100000001C80
000000000005E0
000000000003F1
000000000008C0
00000000004E40
0000000005E600
000000008E5000
0000003CC20000
000018E7000000
0005DC20000000
03BE6000000000
2FFFFFFFFFFFF5
ENDCHAR
STARTCHAR three
ENCODING 51
SWIDTH 726 0
DWIDTH 15 0
BBX 14 14 0 0
BITMAP
027BDEFEC94000
0C84100137DA00
00000000001D60
00000000000A80
00000000001D50
0000001248D600
00004FFFFA2000
0000001248D910
00000000000AA0
000000000003F1
000000000003F0
00000000001BA0
3B63210137DB10
048CEFFDC94000
ENDCHAR
STARTCHAR four
ENCODING 52
SWIDTH 769 0
DWIDTH 15 0
BBX 15 14 0 0
BITMAP
000000004EF50000
00000003E6D50000
0000003E70D50000
000002E700D50000
00002E8000D50000
0002D80000D50000
001D900000D50000
01D9000000D50000
1CA0000000D50000
6FFFFFFFFFFFFFC0
0000000000D50000
0000000000D50000
0000000000D50000
0000000000D50000
ENDCHAR
STARTCHAR five
ENCODING 53
SWIDTH 738 0
DWIDTH 15 0
BBX 13 14 1 0
BITMAP
4FFFFFFFFFF700
4E000000000000
4E000000000000
4E000000000000
4E000000000000
4E000000000000
4FCEFFEDB82000
4C7310125AF600
00000000004F30
00000000000B80
00000000000B80
00000000004F30
A84210125AE600
27ADEFEDB71000
ENDCHAR
STARTCHAR six
ENCODING 54
SWIDTH 772 0
DWIDTH 15 0
BBX 14 14 1 0
BITMAP
00006ADEED9400
003DB520125A40
03E50000000000
0C700000000000
4E000000000000
8B017BDFEC8200
AA8E9310149E50
AFB200000004F2
9C0000000000B8
6E000000000099
1E4000000000B7
07D200000005E1
007E831014AE40
00028CEFEB7100
ENDCHAR
STARTCHAR seven
ENCODING 55
SWIDTH 669 0
DWIDTH 13 0
BBX 13 14 0 0
BITMAP
FFFFFFFFFFFFB0
00000000003F40
0000000000CA00
0000000006E200
000000001E7000
000000009D0000
00000003F40000
0000000CA00000
0000006E200000
000001E7000000
000009D0000000
00003F40000000
0000CA00000000
0006E100000000
ENDCHAR
STARTCHAR eight
ENCODING 56
SWIDTH 793 0
DWIDTH 16 0
BBX 14 14 1 0
BITMAP
0017BDEEDB6000
02DA420025BD10
0A900000000B90
0C6000000007B0
08D20000003E50
007EA5226BD500
0003CFFFFC2000
02AE95125AEA20
3E8100000019E3
B90000000000AA
D600000000007B
AC1000000002D7
1BE84100148E90
0049CDEEDB8300
ENDCHAR
STARTCHAR nine
ENCODING 57
SWIDTH 776 0
DWIDTH 16 0
BBX 15 14 0 0
BITMAP
00039DEFEB600000
009D731025BD3000
07C100000008E100
0E5000000000C900
1F20000000005E00
0E40000000004F20
09C100000005EF30
01BD621025BC4F20
0005ADFFDA503F10
0000000000007C00
000000000001D500
00000000001BA000
00B7310137D90000
0028BEFEC8300000
ENDCHAR
STARTCHAR colon
ENCODING 58
SWIDTH 245 0
DWIDTH 5 0
BBX 3 9 1 0
BITMAP
6F40
6F40
0000
0000
0000
0000
0000
6F40
6F40
ENDCHAR
STARTCHAR semicolon
ENCODING 59
SWIDTH 234 0
DWIDTH 5 0
BBX 4 11 0 -2
BITMAP
06F4
06F4
0000
0000
0000
0000
0000
06F2
09C0
0C80
1F30
ENDCHAR
STARTCHAR less
ENCODING 60
SWIDTH 634 0
DWIDTH 13 0
BBX 10 9 1 2
BITMAP
000000005C
0000028DA3
0004AE8200
16CC610000
7F80000000
16CC600000
0004AE8200
0000028DA3
000000005C
ENDCHAR
STARTCHAR equal
ENCODING 61
SWIDTH 634 0
DWIDTH 13 0
BBX 10 5 1 4
BITMAP
5FFFFFFFFF
0000000000
0000000000
0000000000
5FFFFFFFFF
ENDCHAR
STARTCHAR greater
ENCODING 62
SWIDTH 634 0
DWIDTH 13 0
BBX 11 9 1 2
BITMAP
5A3000000000
06CC61000000
0003AE820000
0000028EB400
00000001BF30
0000028EB400
0003AE820000
05CC61000000
5A3000000000
ENDCHAR
STARTCHAR question
ENCODING 63
SWIDTH 568 0
DWIDTH 11 0
BBX 9 14 1 0
BITMAP
28DFEC8200
962014AE30
0000000AB0
00000005E0
00000007D0
0000003E60
000029F700
008CE92000
00E7100000
00E5000000
0000000000
0000000000
00E9000000
00E9000000
ENDCHAR
STARTCHAR at
ENCODING 64
SWIDTH 1016 0
DWIDTH 20 0
BBX 18 14 1 0
BITMAP
0000027BEFEDA50000
00019E9420125BD400
003E91000000004E50
02E7000000000004E2
0BA00019DFD9F100B7
2F3002DA313AD0008B
6D000AB00006B0007C
7C000E5000098000A9
5E000E50000C6002F4
2F3009C3029F924D90
0AC0018DFD73DFD700
01CB10000000000000
0019E94201247C3000
000028BEFEDC950000
ENDCHAR
STARTCHAR A
ENCODING 65
SWIDTH 812 0
DWIDTH 16 0
BBX 16 14 0 0
BITMAP
0000000CF2000000
0000005EB9000000
000000C73F200000
000005E10A900000
00000C7003F20000
00005E1000A90000
0000C700003F2000
0005E100000A9000
000C70000003F200
005FFFFFFFFFF900
00D5000000001E20
05D0000000000990
0D600000000002F2
5E100000000000A9
ENDCHAR
STARTCHAR B
ENCODING 66
SWIDTH 836 0
DWIDTH 17 0
BBX 14 14 2 0
BITMAP
BFFFFFFFFD9200
B7000000139E10
B7000000000B60
B7000000000980
B7000000000B60
B7000000139C10
BFFFFFFFFFB300
B7000000026D80
B70000000002F4
B70000000000C7
B70000000000C8
B70000000001E5
B7000000015CB0
BFFFFFFFFEB700
ENDCHAR
STARTCHAR C
ENCODING 67
SWIDTH 869 0
DWIDTH 17 0
BBX 15 14 1 0
BITMAP
000038BDFED94000
001AE8421125AC40
01D91000000002A0
0BA0000000000000
3F10000000000000
8B00000000000000
A900000000000000
A900000000000000
8B00000000000000
3F10000000000000
0B90000000000000
01D91000000001A0
001AD84101259C50
000038CDFED94000
ENDCHAR
STARTCHAR D
ENCODING 68
SWIDTH 910 0
DWIDTH 18 0
BBX 15 14 2 0
BITMAP
BFFFFFFFEC830000
B7000000148E9000
B70000000002D900
B700000000003F30
B700000000000B80
B7000000000007C0
B7000000000006D0
B7000000000006D0
B7000000000007C0
B700000000000B90
B700000000003F30
B70000000001D900
B7000000148E9000
BFFFFFFFEC830000
ENDCHAR
STARTCHAR E
ENCODING 69
SWIDTH 754 0
DWIDTH 15 0
BBX 12 14 2 0
BITMAP
BFFFFFFFFFF7
B90000000000
B90000000000
B90000000000
B90000000000
B90000000000
BFFFFFFFFFE0
B90000000000
B90000000000
B90000000000
B90000000000
B90000000000
B90000000000
BFFFFFFFFFF9
ENDCHAR
STARTCHAR F
ENCODING 70
SWIDTH 687 0
DWIDTH 14 0
BBX 11 14 2 0
BITMAP
BFFFFFFFFFD0
B70000000000
B70000000000
B70000000000
B70000000000
B70000000000
BFFFFFFFFF60
B70000000000
B70000000000
B70000000000
B70000000000
B70000000000
B70000000000
B70000000000
ENDCHAR
STARTCHAR G
ENCODING 71
SWIDTH 910 0
DWIDTH 18 0
BBX 16 14 1 0
BITMAP
000027BDEFDA6100
0019E95210248D60
01CA100000000183
0BA0000000000000
3F20000000000000
8B00000000000000
A900000000000000
A90000002FFFFFF8
8C000000000000A8
3F200000000000A8
0BB00000000000A8
02DB1000000000A8
001AE952101247D8
000028BDEFEDB840
ENDCHAR
STARTCHAR H
ENCODING 72
SWIDTH 949 0
DWIDTH 19 0
BBX 15 14 2 0
BITMAP
B7000000000008B0
B7000000000008B0
B7000000000008B0
B7000000000008B0
B7000000000008B0
B7000000000008B0
BFFFFFFFFFFFFFB0
B7000000000008B0
B7000000000008B0
B7000000000008B0
B7000000000008B0
B7000000000008B0
B7000000000008B0
B7000000000008B0
ENDCHAR
STARTCHAR I
ENCODING 73
SWIDTH 287 0
DWIDTH 6 0
BBX 2 14 2 0
BITMAP
B7
B7
B7
B7
B7
B7
B7
B7
B7
B7
B7
B7
B7
B7
ENDCHAR
STARTCHAR J
ENCODING 74
SWIDTH 590 0
DWIDTH 12 0
BBX 10 14 0 0
BITMAP
0000000099
0000000099
0000000099
0000000099
0000000099
0000000099
0000000099
0000000099
0000000099
0000000099
00000000B7
00000004F3
C631027E70
38CEFEA400
ENDCHAR
STARTCHAR K
ENCODING 75
SWIDTH 806 0
DWIDTH 16 0
BBX 14 14 2 0
BITMAP
B8000000005D70
B80000001AC300
B8000006E80000
B80002BD300000
B8006E80000000
B82BD400000000
BBEB1000000000
B87E7000000000
B803DB20000000
B80019E6000000
B800005EA10000
B8000001BE4000
B800000007F910
B8000000003CD3
ENDCHAR
STARTCHAR L
ENCODING 76
SWIDTH 701 0
DWIDTH 14 0
BBX 12 14 2 0
BITMAP
B70000000000
B70000000000
B70000000000
B70000000000
B70000000000
B70000000000
B70000000000
B70000000000
B70000000000
B70000000000
B70000000000
B70000000000
B70000000000
BFFFFFFFFFF4
ENDCHAR
STARTCHAR M
ENCODING 77
SWIDTH 1139 0
DWIDTH 23 0
BBX 19 14 2 0
BITMAP
BD000000000000002E80
BF70000000000000AF80
B9E2000000000005DB80
B77B00000000001D4A80
B70C50000000008A0A80
B704E100000002E20A80
B700A90000000B700A80
B7001E3000005C000A80
B70007C00001E4000A80
B70000C70009A0000A80
B700004E203E10000A80
B700000AA0C700000A80
B7000001EAC000000A80
B70000007F4000000A80
ENDCHAR
STARTCHAR N
ENCODING 78
SWIDTH 936 0
DWIDTH 19 0
BBX 15 14 2 0
BITMAP
BE20000000000B70
BED2000000000B70
B7AD100000000B70
B70BC10000000B70
B701BC1000000B70
B7001CB000000B70
B70001DA00000B70
B700002D90000B70
B7000002E9000B70
B70000003E800B70
B700000003E70B70
B7000000004E6B70
B70000000004FE70
B700000000005F70
ENDCHAR
STARTCHAR O
ENCODING 79
SWIDTH 983 0
DWIDTH 20 0
BBX 18 14 1 0
BITMAP
000038CDFEDB720000
002AD74101249E8000
02D80000000002CB00
0B9000000000001D70
3F10000000000006E0
8B00000000000001F3
A900000000000000E5
A900000000000000E5
8B00000000000001F3
4F10000000000006E0
0C9000000000001D70
02E80000000002CB00
002BD73101249E8000
000049CEFEDB720000
ENDCHAR
STARTCHAR P
ENCODING 80
SWIDTH 818 0
DWIDTH 16 0
BBX 14 14 2 0
BITMAP
BFFFFFFFEC9200
B7000000138E50
B70000000006E0
B70000000001F4
B70000000000E5
B70000000001F4
B70000000007E0
B7000000028E50
BFFFFFFFED9200
B7000000000000
B7000000000000
B7000000000000
B7000000000000
B7000000000000
ENDCHAR
STARTCHAR Q
ENCODING 81
SWIDTH 983 0
DWIDTH 20 0
BBX 19 14 1 0
BITMAP
000038CDFEDB72000000
002AD74101249E800000
02D80000000002CB0000
0B9000000000001D7000
3F10000000000006E000
8B00000000000001F300
A900000000000000E500
A900000000000000E500
8B00000000000001F300
4F10000000000006E000
0C90000000B6001D7000
02E80000005CD7BB0000
002BD7310125DFED8410
000049CEFFDB72049D50
ENDCHAR
STARTCHAR R
ENCODING 82
SWIDTH 833 0
DWIDTH 17 0
BBX 14 14 2 0
BITMAP
BFFFFFFFEB6000
B700000125CC10
B7000000000D70
B70000000009A0
B70000000009A0
B7000000000D60
B700000125BC00
BFFFFFFFFC7000
B70000008C1000
B70000000C9000
B700000002E500
B7000000006E20
B7000000000AC0
B70000000001D9
ENDCHAR
STARTCHAR S
ENCODING 83
SWIDTH 787 0
DWIDTH 16 0
BBX 14 14 1 0
BITMAP
0039CEFEDA7300
07E73101147C10
2F200000000000
5E000000000000
2F700000000000
04EC6200000000
0016BFD9510000
00000148CEA200
00000000029F50
000000000006F1
000000000002F3
000000000007E1
4B63210124AE40
037BDEFFDB7100
ENDCHAR
STARTCHAR T
ENCODING 84
SWIDTH 708 0
DWIDTH 14 0
BBX 14 14 0 0
BITMAP
9FFFFFFFFFFFFC
0000008B000000
0000008B000000
0000008B000000
0000008B000000
0000008B000000
0000008B000000
0000008B000000
0000008B000000
0000008B000000
0000008B000000
0000008B000000
0000008B000000
0000008B000000
ENDCHAR
STARTCHAR U
ENCODING 85
SWIDTH 891 0
DWIDTH 18 0
BBX 14 14 2 0
BITMAP
D500000000008A
D500000000008A
D500000000008A
D500000000008A
D500000000008A
D500000000008A
D500000000008A
D500000000008A
D500000000008A
D600000000008A
A80000000000B8
4F4000000006E2
06EA410025BE40
0028CEFFEB7100
ENDCHAR
STARTCHAR V
ENCODING 86
SWIDTH 817 0
DWIDTH 16 0
BBX 16 14 0 0
BITMAP
3F200000000000C9
0B900000000004F2
04F2000000000B90
00C9000000003F20
005E10000000AA00
000C80000002F300
0005E100000AA000
0000D700002F3000
00006E10009B0000
00000D7001F40000
000007D008B00000
000001E61E400000
0000007D8C000000
0000001EF5000000
ENDCHAR
STARTCHAR W
ENCODING 87
SWIDTH 1266 0
DWIDTH 25 0
BBX 25 14 0 0
BITMAP
1F4000000005FA000000000E60
0AA00000000BCF100000005E10
04F10000001F3D60000000B900
00D60000007D08C0000002F300
008C000000C702F2000007D000
002F300003F200C800000D7000
000B900008B0006D00004F1000
0005E0000E50001F4000AA0000
0001E5004E10000A9001E50000
00009B00A9000005E006E00000
00003F21E4000000E50C800000
00000C76D00000009B2F200000
000007DB800000003F9B000000
000001FF200000000CF6000000
ENDCHAR
STARTCHAR X
ENCODING 88
SWIDTH 821 0
DWIDTH 16 0
BBX 15 14 1 0
BITMAP
5E4000000000BB00
06E30000000AC100
007E2000009D1000
0009D10007E20000
0000AC106E300000
00000BB5E4000000
000001CF50000000
000003ED90000000
00002E72D8000000
0002D8002E700000
001C900003E60000
01CA0000004E4000
0BB100000005E300
AC10000000006E30
ENDCHAR
STARTCHAR Y
ENCODING 89
SWIDTH 763 0
DWIDTH 15 0
BBX 15 14 0 0
BITMAP
1D80000000005E30
02E500000002E600
005E2000001C9000
0008D100009C0000
0000BA0006E20000
00001D703E400000
000003E5D7000000
0000006FA0000000
0000000F40000000
0000000F40000000
0000000F40000000
0000000F40000000
0000000F40000000
0000000F40000000
ENDCHAR
STARTCHAR Z
ENCODING 90
SWIDTH 728 0
DWIDTH 15 0
BBX 13 14 1 0
BITMAP
4FFFFFFFFFFE10
0000000004F500
000000002E8000
00000001CA0000
0000000AD10000
0000007E200000
000004F4000000
00002E70000000
0001CA00000000
000AC100000000
007E2000000000
04F40000000000
2E700000000000
8FFFFFFFFFFF40
ENDCHAR
STARTCHAR bracketleft
ENCODING 91
SWIDTH 409 0
DWIDTH 8 0
BBX 6 16 2 -1
BITMAP
7FFFF3
7B0000
7B0000
7B0000
7B0000
7B0000
7B0000
7B0000
7B0000
7B0000
7B0000
7B0000
7B0000
7B0000
7B0000
7FFFF3
ENDCHAR
STARTCHAR backslash
ENCODING 92
SWIDTH 500 0
DWIDTH 10 0
BBX 8 14 1 0
BITMAP
A8000000
3E100000
0B700000
04E00000
00C60000
004D0000
000C5000
0005C000
0000D400
00006B00
00000E40
000007B0
000001E3
0000008A
ENDCHAR
STARTCHAR bracketright
ENCODING 93
SWIDTH 409 0
DWIDTH 8 0
BBX 5 16 1 -1
BITMAP
FFFFA0
0008A0
0008A0
0008A0
0008A0
0008A0
0008A0
0008A0
0008A0
0008A0
0008A0
0008A0
0008A0
0008A0
0008A0
FFFFA0
ENDCHAR
STARTCHAR asciicircum
ENCODING 94
SWIDTH 459 0
DWIDTH 9 0
BBX 9 6 0 8
BITMAP
0005F80000
000D6E2000
007B09A000
01E301E300
09B0007C00
2F30001E50
ENDCHAR
STARTCHAR underscore
ENCODING 95
SWIDTH 500 0
DWIDTH 10 0
BBX 10 1 0 -2
BITMAP
FFFFFFFFFF
ENDCHAR
STARTCHAR grave
ENCODING 96
SWIDTH 527 0
DWIDTH 11 0
BBX 5 3 2 11
BITMAP
C60000
6CD500
004B50
ENDCHAR
STARTCHAR a
ENCODING 97
SWIDTH 888 0
DWIDTH 18 0
BBX 15 14 1 0
BITMAP
0047BDEFEDA61000
07B74210125AD300
0000000000004E10
0000000000000B70
0000000000000990
000001468ACDEF90
0017CFC975321990
06EB510000000990
4F50000000000990
AA00000000000990
B800000000000990
8D10000000005D90
1CD73101369D9B90
006BDFEDB9510990
ENDCHAR
STARTCHAR b
ENCODING 98
SWIDTH 836 0
DWIDTH 17 0
BBX 14 14 2 0
BITMAP
BFFFFFFFFD9200
B7000000139E10
B7000000000B60
B7000000000980
B7000000000B60
B7000000139C10
BFFFFFFFFFB300
B7000000026D80
B70000000002F4
B70000000000C7
B70000000000C8
B70000000001E5
B7000000015CB0
BFFFFFFFFEB700
ENDCHAR
STARTCHAR c
ENCODING 99
SWIDTH 869 0
DWIDTH 17 0
BBX 15 14 1 0
BITMAP
000038BDFED94000
001AE8421125AC40
01D91000000002A0
0BA0000000000000
3F10000000000000
8B00000000000000
A900000000000000
A900000000000000
8B00000000000000
3F10000000000000
0B90000000000000
01D91000000001A0
001AD84101259C50
000038CDFED94000
ENDCHAR
STARTCHAR d
ENCODING 100
SWIDTH 910 0
DWIDTH 18 0
BBX 15 14 2 0
BITMAP
BFFFFFFFEC830000
B7000000148E9000
B70000000002D900
B700000000003F30
B700000000000B80
B7000000000007C0
B7000000000006D0
B7000000000006D0
B7000000000007C0
B700000000000B90
B700000000003F30
B70000000001D900
B7000000148E9000
BFFFFFFFEC830000
ENDCHAR
STARTCHAR e
ENCODING 101
SWIDTH 910 0
DWIDTH 18 0
BBX 16 14 1 0
BITMAP
000049DEFEB72000
001BC6210149E700
01D8000000002D80
0B900000000002E2
3E100000000000A8
8A0000000000006C
AFFFFFFFFFFFFFFD
AA00000000000000
8D00000000000000
3F40000000000000
0BC1000000000000
02DB200000000000
001AE952101358A0
000038BEFFECA610
ENDCHAR
STARTCHAR f
ENCODING 102
SWIDTH 817 0
DWIDTH 16 0
BBX 14 14 2 0
BITMAP
0039CEFFFFFFF2
08E84100000000
4E300000000000
99000000000000
B7000000000000
B7000000000000
BFFFFFFFFFFFE0
B7000000000000
B7000000000000
B7000000000000
B7000000000000
B7000000000000
B7000000000000
B7000000000000
ENDCHAR
STARTCHAR g
ENCODING 103
SWIDTH 910 0
DWIDTH 18 0
BBX 16 14 1 0
BITMAP
000027BDEFDA6100
0019E95210248D60
01CA100000000183
0BA0000000000000
3F20000000000000
8B00000000000000
A900000000000000
A90000002FFFFFF8
8C000000000000A8
3F200000000000A8
0BB00000000000A8
02DB1000000000A8
001AE952101247D8
000028BDEFEDB840
ENDCHAR
STARTCHAR h
ENCODING 104
SWIDTH 949 0
DWIDTH 19 0
BBX 15 14 2 0
BITMAP
B7000000000008B0
B7000000000008B0
B7000000000008B0
B7000000000008B0
B7000000000008B0
B7000000000008B0
BFFFFFFFFFFFFFB0
B7000000000008B0
B7000000000008B0
B7000000000008B0
B7000000000008B0
B7000000000008B0
B7000000000008B0
B7000000000008B0
ENDCHAR
STARTCHAR i
ENCODING 105
SWIDTH 287 0
DWIDTH 6 0
BBX 2 14 2 0
BITMAP
B7
B7
B7
B7
B7
B7
B7
B7
B7
B7
B7
B7
B7
B7
ENDCHAR
STARTCHAR j
ENCODING 106
SWIDTH 590 0
DWIDTH 12 0
BBX 10 14 0 0
BITMAP
0000000099
0000000099
0000000099
0000000099
0000000099
0000000099
0000000099
0000000099
0000000099
0000000099
00000000B7
00000004F3
C631027E70
38CEFEA400
ENDCHAR
STARTCHAR k
ENCODING 107
SWIDTH 867 0
DWIDTH 17 0
BBX 15 14 2 0
BITMAP
B70000000001F300
B70000000006E000
B7000000001E6000
B700000001CB0000
B70000005D900000
B700248CC4000000
BFFFFFF820000000
B700136AFA200000
B700000029E50000
B7000000006F5000
B70000000007E100
B70000000000C800
B700000000007D00
B700000000003F10
ENDCHAR
STARTCHAR l
ENCODING 108
SWIDTH 709 0
DWIDTH 14 0
BBX 12 14 2 0
BITMAP
B70000000000
B70000000000
B70000000000
B70000000000
B70000000000
B70000000000
B70000000000
B70000000000
B70000000000
B70000000000
A80000000000
7C0000000000
1DB410000000
018CEFFFFFFF
ENDCHAR
STARTCHAR m
ENCODING 109
SWIDTH 1246 0
DWIDTH 25 0
BBX 21 14 2 0
BITMAP
B7028DED910006BEFC6000
B76D7213AD13CA4114C900
BDB100000ABD4000001E40
BB00000005F20000000A90
B700000003F000000008B0
B700000003F000000008B0
B700000003F000000008B0
B700000003F000000008B0
B700000003F000000008B0
B700000003F000000008B0
B700000003F000000008B0
B700000003F000000008B0
B700000003F000000008B0
B700000003F000000008B0
ENDCHAR
STARTCHAR n
ENCODING 110
SWIDTH 933 0
DWIDTH 19 0
BBX 15 14 2 0
BITMAP
B700049DEFD93000
B705DC620127E500
B9BC300000005E10
BF70000000000E50
B800000000000C70
B700000000000B70
B700000000000B70
B700000000000B70
B700000000000B70
B700000000000B70
B700000000000B70
B700000000000B70
B700000000000B70
B700000000000B70
ENDCHAR
STARTCHAR o
ENCODING 111
SWIDTH 983 0
DWIDTH 20 0
BBX 18 14 1 0
BITMAP
000038CDFEDB720000
002AD74101249E8000
02D80000000002CB00
0B9000000000001D70
3F10000000000006E0
8B00000000000001F3
A900000000000000E5
A900000000000000E5
8B00000000000001F3
4F10000000000006E0
0C9000000000001D70
02E80000000002CB00
002BD73101249E8000
000049CEFEDB720000
ENDCHAR
STARTCHAR p
ENCODING 112
SWIDTH 818 0
DWIDTH 16 0
BBX 14 14 2 0
BITMAP
BFFFFFFFEC9200
B7000000138E50
B70000000006E0
B70000000001F4
B70000000000E5
B70000000001F4
B70000000007E0
B7000000028E50
BFFFFFFFED9200
B7000000000000
B7000000000000
B7000000000000
B7000000000000
B7000000000000
ENDCHAR
STARTCHAR q
ENCODING 113
SWIDTH 983 0
DWIDTH 20 0
BBX 19 14 1 0
BITMAP
000038CDFEDB72000000
002AD74101249E800000
02D80000000002CB0000
0B9000000000001D7000
3F10000000000006E000
8B00000000000001F300
A900000000000000E500
A900000000000000E500
8B00000000000001F300
4F10000000000006E000
0C9000000000001D7000
02E80000000002CB0000
002BD73101249EFB7300
000049CEFEDB6247AD40
ENDCHAR
STARTCHAR r
ENCODING 114
SWIDTH 609 0
DWIDTH 12 0
BBX 11 14 2 0
BITMAP
B70027CEFE30
B707D8310210
B8B900000000
BF6000000000
B90000000000
B70000000000
B70000000000
B70000000000
B70000000000
B70000000000
B70000000000
B70000000000
B70000000000
B70000000000
ENDCHAR
STARTCHAR s
ENCODING 115
SWIDTH 787 0
DWIDTH 16 0
BBX 14 14 1 0
BITMAP
0039CEFEDA7300
07E73101147C10
2F200000000000
5E000000000000
2F700000000000
04EC6200000000
0016BFD9510000
00000148CEA200
00000000029F50
000000000006F1
000000000002F3
000000000007E1
4B63210124AE40
037BDEFFDB7100
ENDCHAR
STARTCHAR t
ENCODING 116
SWIDTH 708 0
DWIDTH 14 0
BBX 14 14 0 0
BITMAP
9FFFFFFFFFFFFC
0000008B000000
0000008B000000
0000008B000000
0000008B000000
0000008B000000
0000008B000000
0000008B000000
0000008B000000
0000008B000000
0000008B000000
0000008B000000
0000008B000000
0000008B000000
ENDCHAR
STARTCHAR u
ENCODING 117
SWIDTH 931 0
DWIDTH 19 0
BBX 15 14 2 0
BITMAP
C700000000000D50
C700000000000D50
C700000000000D50
C700000000000D50
C700000000000D50
C700000000000D50
C700000000000D50
C700000000000D50
C700000000000D50
C700000000000D50
A900000000008F50
4E100000004DAE50
09C520137DB40D50
005BEFEC83000D50
ENDCHAR
STARTCHAR v
ENCODING 118
SWIDTH 817 0
DWIDTH 16 0
BBX 16 14 0 0
BITMAP
3F200000000000C9
0B900000000004F2
04F2000000000B90
00C9000000003F20
005E10000000AA00
000C80000002F300
0005E100000AA000
0000D700002F3000
00006E10009B0000
00000D7001F40000
000007D008B00000
000001E61E400000
0000007D8C000000
0000001EF5000000
ENDCHAR
STARTCHAR w
ENCODING 119
SWIDTH 1266 0
DWIDTH 25 0
BBX 25 14 0 0
BITMAP
1F4000000005FA000000000E60
0AA00000000BCF100000005E10
04F10000001F3D60000000B900
00D60000007D08C0000002F300
008C000000C702F2000007D000
002F300003F200C800000D7000
000B900008B0006D00004F1000
0005E0000E50001F4000AA0000
0001E5004E10000A9001E50000
00009B00A9000005E006E00000
00003F21E4000000E50C800000
00000C76D00000009B2F200000
000007DB800000003F9B000000
000001FF200000000CF6000000
ENDCHAR
STARTCHAR x
ENCODING 120
SWIDTH 821 0
DWIDTH 16 0
BBX 15 14 1 0
BITMAP
5E4000000000BB00
06E30000000AC100
007E2000009D1000
0009D10007E20000
0000AC106E300000
00000BB5E4000000
000001CF50000000
000003ED90000000
00002E72D8000000
0002D8002E700000
001C900003E60000
01CA0000004E4000
0BB100000005E300
AC10000000006E30
ENDCHAR
STARTCHAR y
ENCODING 121
SWIDTH 911 0
DWIDTH 18 0
BBX 15 14 1 0
BITMAP
3F000000000004E0
3F000000000004E0
3F000000000004E0
3F100000000004E0
1F300000000008E0
0C70000000005FE0
05E200000007E7E0
008E731026CB24E0
00039DFFD94004E0
00000000000006D0
0000000000001D90
000000000001BD10
3C842100249EC200
048BDEFFEC940000
ENDCHAR
STARTCHAR z
ENCODING 122
SWIDTH 728 0
DWIDTH 15 0
BBX 13 14 1 0
BITMAP
4FFFFFFFFFFE10
0000000004F500
000000002E8000
00000001CA0000
0000000AD10000
0000007E200000
000004F4000000
00002E70000000
0001CA00000000
000AC100000000
007E2000000000
04F40000000000
2E700000000000
8FFFFFFFFFFF40
ENDCHAR
STARTCHAR braceleft
ENCODING 123
SWIDTH 386 0
DWIDTH 8 0
BBX 7 16 0 -1
BITMAP
0003CEB0
000D7000
001F1000
002F1000
002F1000
004E0000
01A90000
6FB00000
01B70000
004D0000
003F0000
002F1000
002F1000
001F2000
000C7000
0002BEB0
ENDCHAR
STARTCHAR bar
ENCODING 124
SWIDTH 259 0
DWIDTH 5 0
BBX 2 20 2 -5
BITMAP
F3
F3
F3
F3
F3
F3
F3
F3
F3
F3
F3
F3
F3
F3
F3
F3
F3
F3
F3
F3
ENDCHAR
STARTCHAR braceright
ENCODING 125
SWIDTH 386 0
DWIDTH 8 0
BBX 7 16 1 -1
BITMAP
FEA10000
01B90000
006C0000
005D0000
005D0000
004E0000
000D6000
0002EF20
000C7100
003F0000
005E0000
005D0000
005D0000
006C0000
01B70000
FE910000
ENDCHAR
STARTCHAR asciitilde
ENCODING 126
SWIDTH 634 0
DWIDTH 13 0
BBX 11 2 1 6
BITMAP
1AEEB7311730
651148CEE700
ENDCHAR
STARTCHAR nonbreakingspace
ENCODING 160
SWIDTH 375 0
DWIDTH 8 0
BBX 1 1 0 0
BITMAP
00
ENDCHAR
STARTCHAR exclamdown
ENCODING 161
SWIDTH 274 0
DWIDTH 6 0
BBX 2 14 2 0
BITMAP
F8
F8
00
00
A3
B3
C4
C5
D5
E6
E7
F7
F8
F8
ENDCHAR
STARTCHAR cent
ENCODING 162
SWIDTH 736 0
DWIDTH 15 0
BBX 13 16 1 -1
BITMAP
00000079000000
00000079000000
00039CEFDA5000
01AD7379149C30
0CA10079000280
7D100079000000
C8000079000000
E5000079000000
E5000079000000
C8000079000000
7D000079000000
0CA10079000280
01BD7379149C30
00049DFFEB5000
00000079000000
00000079000000
ENDCHAR
STARTCHAR sterling
ENCODING 163
SWIDTH 792 0
DWIDTH 16 0
BBX 14 14 1 0
BITMAP
000004AEFEC820
00008D620127A0
0004E200000000
000A9000000000
000D6000000000
000E5000000000
000E4000000000
CFFFFFFFFFB000
000E4000000000
000E4000000000
000E3000000000
005C0000000000
16EFFDB7410268
B9411259CEFD92
ENDCHAR
STARTCHAR currency
ENCODING 164
SWIDTH 560 0
DWIDTH 11 0
BBX 9 9 1 2
BITMAP
6400000280
4E7CED8E60
07E513CA00
0C40002E10
0E10000D20
0C40001E10
07D413BA00
4E7CED7D70
6400000280
ENDCHAR
STARTCHAR yen
ENCODING 165
SWIDTH 811 0
DWIDTH 16 0
BBX 14 14 1 0
BITMAP
6E2000000000C9
0AC000000009C1
01C90000006E20
002E600003E500
0005E3001D8000
00008D10AB0000
3FFFFFA7FFFFF6
000001DF300000
0000008B000000
3FFFFFFFFFFFF6
0000008B000000
0000008B000000
0000008B000000
0000008B000000
ENDCHAR
STARTCHAR brokenbar
ENCODING 166
SWIDTH 259 0
DWIDTH 5 0
BBX 2 17 2 -3
BITMAP
F3
F3
F3
F3
F3
F3
F3
00
00
00
F3
F3
F3
F3
F3
F3
F3
ENDCHAR
STARTCHAR section
ENCODING 167
SWIDTH 500 0
DWIDTH 10 0
BBX 8 14 1 0
BITMAP
03BEEB30
1E7104A0
2F200000
0BC20000
07EF9200
6C129E90
B70002D8
8D20007B
09E821C7
003AFE70
00002CB0
000002F2
393017E1
06CFEA30
ENDCHAR
STARTCHAR dieresis
ENCODING 168
SWIDTH 527 0
DWIDTH 11 0
BBX 6 1 2 11
BITMAP
6F107E
ENDCHAR
STARTCHAR copyright
ENCODING 169
SWIDTH 770 0
DWIDTH 15 0
BBX 14 13 1 0
BITMAP
00039DEDB50000
007D72014BC200
08B14CFE926D10
3D16E511670790
A50E40000000D1
D13E0000000094
E03E0000000086
D10E4000000094
A506E5116700D1
3D105CFE920790
08B10000005D10
008D62014AC200
00039DEDB50000
ENDCHAR
STARTCHAR ordfeminine
ENCODING 170
SWIDTH 497 0
DWIDTH 10 0
BBX 9 9 0 5
BITMAP
017CFEC800
0862014D90
00000004D0
0169CDEFD0
2D853213D0
5D20025AD0
08DFFEB8D0
0000000000
1FFFFFFFD0
ENDCHAR
STARTCHAR guillemotleft
ENCODING 171
SWIDTH 440 0
DWIDTH 9 0
BBX 8 7 0 3
BITMAP
001B204A
00BA03E5
0AC12E60
3F209B00
0AC12E60
00BA03E5
001B204A
ENDCHAR
STARTCHAR logicalnot
ENCODING 172
SWIDTH 634 0
DWIDTH 13 0
BBX 10 4 1 5
BITMAP
5FFFFFFFFF
000000000F
000000000F
000000000F
ENDCHAR
STARTCHAR uni00AD
ENCODING 173
SWIDTH 540 0
DWIDTH 11 0
BBX 9 1 1 6
BITMAP
6FFFFFFF30
ENDCHAR
STARTCHAR registered
ENCODING 174
SWIDTH 600 0
DWIDTH 12 0
BBX 10 10 1 4
BITMAP
004BEEB400
07D4115D70
4C0EFE81C3
A30D02D23A
C00D02E20C
C00EFF800C
A20D05903A
4C0D00A5C4
08D4115D70
004BEEB400
ENDCHAR
STARTCHAR macron
ENCODING 175
SWIDTH 527 0
DWIDTH 11 0
BBX 6 1 2 11
BITMAP
6FFFFE
ENDCHAR
STARTCHAR degree
ENCODING 176
SWIDTH 373 0
DWIDTH 7 0
BBX 6 5 1 9
BITMAP
09EC30
7A15D0
A400D2
7A14D0
09EC30
ENDCHAR
STARTCHAR plusminus
ENCODING 177
SWIDTH 634 0
DWIDTH 13 0
BBX 10 11 1 1
BITMAP
00003D0000
00003D0000
00003D0000
00003D0000
5FFFFFFFFF
00003D0000
00003D0000
00003D0000
00003D0000
0000000000
5FFFFFFFFF
ENDCHAR
STARTCHAR twosuperior
ENCODING 178
SWIDTH 511 0
DWIDTH 10 0
BBX 10 9 0 5
BITMAP
05AEFDB500
3B51026E80
00000004E0
00000005C0
0000004D30
000018C300
0006D70000
04C9200000
4FFFFFFFF2
ENDCHAR
STARTCHAR threesuperior
ENCODING 179
SWIDTH 512 0
DWIDTH 10 0
BBX 9 9 0 5
BITMAP
05BEFEB500
2941026E50
0000000990
0000138D30
000AFFB300
0000125C70
00000004D0
4931025D90
06BEFEB600
ENDCHAR
STARTCHAR acute
ENCODING 180
SWIDTH 527 0
DWIDTH 11 0
BBX 5 3 4 11
BITMAP
002970
18EA30
A81000
ENDCHAR
STARTCHAR micro
ENCODING 181
SWIDTH 705 0
DWIDTH 14 0
BBX 13 13 0 -4
BITMAP
000D5000001F20
001F2000004E00
004E0000007B00
007B000000B800
00A8000000E500
00D5000003F200
01F800002DF000
04EC6126C4F000
07B2BED810E400
0A800000000000
0D500000000000
1F300000000000
3F000000000000
ENDCHAR
STARTCHAR paragraph
ENCODING 182
SWIDTH 585 0
DWIDTH 12 0
BBX 9 14 1 0
BITMAP
018DFFFF50
1DFFF80850
8FFFF80850
BFFFF80850
BFFFF80850
8FFFF80850
1DFFF80850
018DF80850
0000580850
0000580850
0000580850
0000580850
0000580850
0000580850
ENDCHAR
STARTCHAR periodcentered
ENCODING 183
SWIDTH 185 0
DWIDTH 4 0
BBX 2 2 1 6
BITMAP
FB
FB
ENDCHAR
STARTCHAR cedilla
ENCODING 184
SWIDTH 527 0
DWIDTH 11 0
BBX 5 4 3 -4
BITMAP
02B000
08FD30
001B70
EFFC20
ENDCHAR
STARTCHAR onesuperior
ENCODING 185
SWIDTH 261 0
DWIDTH 5 0
BBX 4 9 0 5
BITMAP
29F6
A6B6
00A6
00A6
00A6
00A6
00A6
00A6
00A6
ENDCHAR
STARTCHAR ordmasculine
ENCODING 186
SWIDTH 520 0
DWIDTH 10 0
BBX 10 9 0 5
BITMAP
005BEEC810
0AC41128E2
3E10000089
6B0000004C
3E10000089
0AC41028E2
005BEEC810
0000000000
0EFFFFFFF5
ENDCHAR
STARTCHAR guillemotright
ENCODING 187
SWIDTH 440 0
DWIDTH 9 0
BBX 8 7 0 3
BITMAP
1B204A00
07D21C90
009D12D8
000E605F
009D12D8
07D21C90
1B204A00
ENDCHAR
STARTCHAR onequarter
ENCODING 188
SWIDTH 857 0
DWIDTH 17 0
BBX 17 14 0 0
BITMAP
18E900000002E40000
87890000000C700000
00890000009A000000
0089000005D1000000
008900003E30000000
00890001D600000000
0089000AA000000000
0000006D1001BF4000
000003E2002C7C4000
00001D5003D50C4000
0000B9005C200C4000
0007C000EFFFFFFF20
004E200000000C4000
01E5000000000C4000
ENDCHAR
STARTCHAR onehalf
ENCODING 189
SWIDTH 937 0
DWIDTH 19 0
BBX 18 14 0 0
BITMAP
18E900000002E40000
87890000000C700000
00890000009A000000
0089000005D1000000
008900003E30000000
00890001D600000000
0089000AA000000000
0000006D1018DFDA20
000003E200872029D0
00001D5000000002F1
0000B9000000001B70
0007C000000006C500
004E20000006C60000
01E5000000AFFFFFF2
ENDCHAR
STARTCHAR threequarters
ENCODING 190
SWIDTH 978 0
DWIDTH 20 0
BBX 18 14 1 0
BITMAP
3BEFD80000000A9000
94113D6000007C1000
00013C400003E20000
00CFE600001D500000
00013B8000B9000000
A3002AA008C0000000
5BFFD9104E20000000
00000002E40006FA00
0000000C80008C8A00
0000008B001A906A00
000005E102C6006A00
00002E4008FFFFFFF8
0001C7000000006A00
0009B0000000006A00
ENDCHAR
STARTCHAR questiondown
ENCODING 191
SWIDTH 568 0
DWIDTH 11 0
BBX 10 14 1 0
BITMAP
000003F400
000003F400
0000000000
0000000000
000000E400
000003E400
0017DEA200
03DC500000
2E80000000
8D00000000
9A00000000
5E20000000
0BD51014A2
006BEFEA40
ENDCHAR
STARTCHAR Agrave
ENCODING 192
SWIDTH 812 0
DWIDTH 16 0
BBX 16 18 0 0
BITMAP
00001C5000000000
000017DC40000000
00000005C3000000
0000000000000000
0000000CF2000000
0000005EB9000000
000000C73F200000
000005E10A900000
00000C7003F20000
00005E1000A90000
0000C700003F2000
0005E100000A9000
000C70000003F200
005FFFFFFFFFF900
00D5000000001E20
05D0000000000990
0D600000000002F2
5E100000000000A9
ENDCHAR
STARTCHAR Aacute
ENCODING 193
SWIDTH 812 0
DWIDTH 16 0
BBX 16 18 0 0
BITMAP
0000000003A50000
000000029E920000
0000000C71000000
0000000000000000
0000000CF2000000
0000005EB9000000
000000C73F200000
000005E10A900000
00000C7003F20000
00005E1000A90000
0000C700003F2000
0005E100000A9000
000C70000003F200
005FFFFFFFFFF900
00D5000000001E20
05D0000000000990
0D600000000002F2
5E100000000000A9
ENDCHAR
STARTCHAR Acircumflex
ENCODING 194
SWIDTH 812 0
DWIDTH 16 0
BBX 16 18 0 0
BITMAP
00000019B3000000
000006C52B810000
0000681000590000
0000000000000000
0000000CF2000000
0000005EB9000000
000000C73F200000
000005E10A900000
00000C7003F20000
00005E1000A90000
0000C700003F2000
0005E100000A9000
000C70000003F200
005FFFFFFFFFF900
00D5000000001E20
05D0000000000990
0D600000000002F2
5E100000000000A9
ENDCHAR
STARTCHAR Atilde
ENCODING 195
SWIDTH 812 0
DWIDTH 16 0
BBX 16 17 0 0
BITMAP
000009EC61880000
00003C14AEC10000
0000000000000000
0000000CF2000000
0000005EB9000000
000000C73F200000
000005E10A900000
00000C7003F20000
00005E1000A90000
0000C700003F2000
0005E100000A9000
000C70000003F200
005FFFFFFFFFF900
00D5000000001E20
05D0000000000990
0D600000000002F2
5E100000000000A9
ENDCHAR
STARTCHAR Adieresis
ENCODING 196
SWIDTH 812 0
DWIDTH 16 0
BBX 16 16 0 0
BITMAP
000008E009C00000
0000000000000000
0000000CF2000000
0000005EB9000000
000000C73F200000
000005E10A900000
00000C7003F20000
00005E1000A90000
0000C700003F2000
0005E100000A9000
000C70000003F200
005FFFFFFFFFF900
00D5000000001E20
05D0000000000990
0D600000000002F2
5E100000000000A9
ENDCHAR
STARTCHAR Aring
ENCODING 197
SWIDTH 812 0
DWIDTH 16 0
BBX 16 19 0 0
BITMAP
0000008EEA100000
000005C119900000
000005C119900000
0000008EEA100000
0000000000000000
0000000CF2000000
0000005EB9000000
000000C73F200000
000005E10A900000
00000C7003F20000
00005E1000A90000
0000C700003F2000
0005E100000A9000
000C70000003F200
005FFFFFFFFFF900
00D5000000001E20
05D0000000000990
0D600000000002F2
5E100000000000A9
ENDCHAR
STARTCHAR AE
ENCODING 198
SWIDTH 1172 0
DWIDTH 23 0
BBX 22 14 0 0
BITMAP
000000004FFFFFFFFFFFFC
00000001D66E0000000000
00000008B06E0000000000
0000003E206E0000000000
000000C7006E0000000000
000007D0006E0000000000
00002F40006FFFFFFFFFF4
0000C900006E0000000000
0007E100006E0000000000
002EFFFFFFFE0000000000
00BA0000006E0000000000
06E20000006E0000000000
1E700000006E0000000000
AD000000006FFFFFFFFFFE
ENDCHAR
STARTCHAR Ccedilla
ENCODING 199
SWIDTH 869 0
DWIDTH 17 0
BBX 15 18 1 -4
BITMAP
000038BDFED94000
001AE8421125AC40
01D91000000002A0
0BA0000000000000
3F10000000000000
8B00000000000000
A900000000000000
A900000000000000
8B00000000000000
3F10000000000000
0B90000000000000
01D91000000001A0
001AD84101259C50
000037CEFED94000
0000000490000000
00000009FC200000
000000001B700000
000000EFFC200000
ENDCHAR
STARTCHAR Egrave
ENCODING 200
SWIDTH 754 0
DWIDTH 15 0
BBX 12 18 2 0
BITMAP
006920000000
0039E9100000
000018B00000
000000000000
BFFFFFFFFFF7
B90000000000
B90000000000
B90000000000
B90000000000
B90000000000
BFFFFFFFFFE0
B90000000000
B90000000000
B90000000000
B90000000000
B90000000000
B90000000000
BFFFFFFFFFF9
ENDCHAR
STARTCHAR Eacute
ENCODING 201
SWIDTH 754 0
DWIDTH 15 0
BBX 12 18 2 0
BITMAP
00000005C000
000005CD6000
00004B400000
000000000000
BFFFFFFFFFF7
B90000000000
B90000000000
B90000000000
B90000000000
B90000000000
BFFFFFFFFFE0
B90000000000
B90000000000
B90000000000
B90000000000
B90000000000
B90000000000
BFFFFFFFFFF9
ENDCHAR
STARTCHAR Ecircumflex
ENCODING 202
SWIDTH 754 0
DWIDTH 15 0
BBX 12 18 2 0
BITMAP
00004C810000
0019A26C5000
00A400019500
000000000000
BFFFFFFFFFF7
B90000000000
B90000000000
B90000000000
B90000000000
B90000000000
BFFFFFFFFFE0
B90000000000
B90000000000
B90000000000
B90000000000
B90000000000
B90000000000
BFFFFFFFFFF9
ENDCHAR
STARTCHAR Edieresis
ENCODING 203
SWIDTH 754 0
DWIDTH 15 0
BBX 12 16 2 0
BITMAP
000E800F6000
000000000000
BFFFFFFFFFF7
B90000000000
B90000000000
B90000000000
B90000000000
B90000000000
BFFFFFFFFFE0
B90000000000
B90000000000
B90000000000
B90000000000
B90000000000
B90000000000
BFFFFFFFFFF9
ENDCHAR
STARTCHAR Igrave
ENCODING 204
SWIDTH 287 0
DWIDTH 6 0
BBX 5 18 -1 0
BITMAP
5A3000
29EA20
0017C0
000000
000B70
000B70
000B70
000B70
000B70
000B70
000B70
000B70
000B70
000B70
000B70
000B70
000B70
000B70
ENDCHAR
STARTCHAR Iacute
ENCODING 205
SWIDTH 287 0
DWIDTH 6 0
BBX 6 18 1 0
BITMAP
0004C1
04CD71
2C5000
000000
0B7000
0B7000
0B7000
0B7000
0B7000
0B7000
0B7000
0B7000
0B7000
0B7000
0B7000
0B7000
0B7000
0B7000
ENDCHAR
STARTCHAR Icircumflex
ENCODING 206
SWIDTH 287 0
DWIDTH 6 0
BBX 8 18 -1 0
BITMAP
003B9100
18B35C60
96000186
00000000
000B7000
000B7000
000B7000
000B7000
000B7000
000B7000
000B7000
000B7000
000B7000
000B7000
000B7000
000B7000
000B7000
000B7000
ENDCHAR
STARTCHAR Idieresis
ENCODING 207
SWIDTH 287 0
DWIDTH 6 0
BBX 6 16 0 0
BITMAP
CA00D8
000000
00B700
00B700
00B700
00B700
00B700
00B700
00B700
00B700
00B700
00B700
00B700
00B700
00B700
00B700
ENDCHAR
STARTCHAR Eth
ENCODING 208
SWIDTH 910 0
DWIDTH 18 0
BBX 17 14 0 0
BITMAP
00BFFFFFFECA720000
00B700000136BF9000
00B70000000003EA00
00B700000000003F40
00B700000000000B90
00B7000000000007C0
BFFFFFFFF0000006D0
00B7000000000006D0
00B7000000000007C0
00B700000000000B90
00B700000000002F30
00B70000000002CA00
00B7000001249E9000
00BFFFFFFEDB720000
ENDCHAR
STARTCHAR Ntilde
ENCODING 209
SWIDTH 936 0
DWIDTH 19 0
BBX 15 17 2 0
BITMAP
00006ED725B00000
0000E239ED300000
0000000000000000
BE20000000000B70
BED2000000000B70
B7AD100000000B70
B70BC10000000B70
B701BC1000000B70
B7001CB000000B70
B70001DA00000B70
B700002D90000B70
B7000002E9000B70
B70000003E800B70
B700000003E70B70
B7000000004E6B70
B70000000004FE70
B700000000005F70
ENDCHAR
STARTCHAR Ograve
ENCODING 210
SWIDTH 983 0
DWIDTH 20 0
BBX 18 18 1 0
BITMAP
000005A30000000000
0000029EA200000000
000000017C00000000
000000000000000000
000038CDFEDB720000
002AD74101249E8000
02D80000000002CB00
0B9000000000001D70
3F10000000000006E0
8B00000000000001F3
A900000000000000E5
A900000000000000E5
8B00000000000001F3
4F10000000000006E0
0C9000000000001D70
02E80000000002CB00
002BD73101249E8000
000049CEFEDB720000
ENDCHAR
STARTCHAR Oacute
ENCODING 211
SWIDTH 983 0
DWIDTH 20 0
BBX 18 18 1 0
BITMAP
00000000005C100000
000000004CD7100000
00000003C500000000
000000000000000000
000038CDFEDB720000
002AD74101249E8000
02D80000000002CB00
0B9000000000001D70
3F10000000000006E0
8B00000000000001F3
A900000000000000E5
A900000000000000E5
8B00000000000001F3
4F10000000000006E0
0C9000000000001D70
02E80000000002CB00
002BD73101249E8000
000049CEFEDB720000
ENDCHAR
STARTCHAR Ocircumflex
ENCODING 212
SWIDTH 983 0
DWIDTH 20 0
BBX 18 18 1 0
BITMAP
00000003B910000000
0000018B25C6000000
000009500018600000
000000000000000000
000038CDFEDB720000
002AD74101249E8000
02D80000000002CB00
0B9000000000001D70
3F10000000000006E0
8B00000000000001F3
A900000000000000E5
A900000000000000E5
8B00000000000001F3
4F10000000000006E0
0C9000000000001D70
02E80000000002CB00
002BD73101249E8000
000049CEFEDB720000
ENDCHAR
STARTCHAR Otilde
ENCODING 213
SWIDTH 983 0
DWIDTH 20 0
BBX 18 17 1 0
BITMAP
000001BEA41C300000
000007816CE9000000
000000000000000000
000038CDFEDB720000
002AD74101249E8000
02D80000000002CB00
0B9000000000001D70
3F10000000000006E0
8B00000000000001F3
A900000000000000E5
A900000000000000E5
8B00000000000001F3
4F10000000000006E0
0C9000000000001D70
02E80000000002CB00
002BD73101249E8000
000049CEFEDB720000
ENDCHAR
STARTCHAR Odieresis
ENCODING 214
SWIDTH 983 0
DWIDTH 20 0
BBX 18 16 1 0
BITMAP
000000C900D8000000
000000000000000000
000038CDFEDB720000
002AD74101249E8000
02D80000000002CB00
0B9000000000001D70
3F10000000000006E0
8B00000000000001F3
A900000000000000E5
A900000000000000E5
8B00000000000001F3
4F10000000000006E0
0C9000000000001D70
02E80000000002CB00
002BD73101249E8000
000049CEFEDB720000
ENDCHAR
STARTCHAR multiply
ENCODING 215
SWIDTH 634 0
DWIDTH 13 0
BBX 9 8 2 3
BITMAP
7700001B30
2D8001CA00
02D81C9000
001DE90000
001CE90000
01D81C9000
2D8001C900
7700001B30
ENDCHAR
STARTCHAR Oslash
ENCODING 216
SWIDTH 983 0
DWIDTH 20 0
BBX 18 18 1 -2
BITMAP
00000000000001E400
00000000000008A000
000038CDFEDB8E1000
002AD7410125FD8000
02D80000000981AA00
0B900000005C001C70
3F10000001E30005D0
8B0000000B700001F3
A90000006C000000E5
99000002E2000000E5
8B00000C60000001F3
4F10008B00000006E0
0C9003E10000001D70
02E81D50000002CB00
002BED3101249E8000
0005D8CEFEDB720000
001D40000000000000
008B00000000000000
ENDCHAR
STARTCHAR Ugrave
ENCODING 217
SWIDTH 891 0
DWIDTH 18 0
BBX 14 18 2 0
BITMAP
0004B300000000
00028EA2000000
0000017C100000
00000000000000
D500000000008A
D500000000008A
D500000000008A
D500000000008A
D500000000008A
D500000000008A
D500000000008A
D500000000008A
D500000000008A
D600000000008A
A80000000000B8
4F4000000006E2
06EA410025BE40
0028CEFFEB7100
ENDCHAR
STARTCHAR Uacute
ENCODING 218
SWIDTH 891 0
DWIDTH 18 0
BBX 14 18 2 0
BITMAP
000000004C2000
0000003BD71000
000002C5000000
00000000000000
D500000000008A
D500000000008A
D500000000008A
D500000000008A
D500000000008A
D500000000008A
D500000000008A
D500000000008A
D500000000008A
D600000000008A
A80000000000B8
4F4000000006E2
06EA410025BE40
0028CEFFEB7100
ENDCHAR
STARTCHAR Ucircumflex
ENCODING 219
SWIDTH 891 0
DWIDTH 18 0
BBX 14 18 2 0
BITMAP
000002BA100000
00018B34C60000
00096000077000
00000000000000
D500000000008A
D500000000008A
D500000000008A
D500000000008A
D500000000008A
D500000000008A
D500000000008A
D500000000008A
D500000000008A
D600000000008A
A80000000000B8
4F4000000006E2
06EA410025BE40
0028CEFFEB7100
ENDCHAR
STARTCHAR Udieresis
ENCODING 220
SWIDTH 891 0
DWIDTH 18 0
BBX 14 16 2 0
BITMAP
0000CA00C90000
00000000000000
D500000000008A
D500000000008A
D500000000008A
D500000000008A
D500000000008A
D500000000008A
D500000000008A
D500000000008A
D500000000008A
D600000000008A
A80000000000B8
4F4000000006E2
06EA410025BE40
0028CEFFEB7100
ENDCHAR
STARTCHAR Yacute
ENCODING 221
SWIDTH 763 0
DWIDTH 15 0
BBX 15 18 0 0
BITMAP
0000000006B00000
00000005DC500000
0000006A40000000
0000000000000000
1D80000000005E30
02E500000002E600
005E2000001C9000
0008D100009C0000
0000BA0006E20000
00001D703E400000
000003E5D7000000
0000006FA0000000
0000000F40000000
0000000F40000000
0000000F40000000
0000000F40000000
0000000F40000000
0000000F40000000
ENDCHAR
STARTCHAR Thorn
ENCODING 222
SWIDTH 787 0
DWIDTH 16 0
BBX 13 14 2 0
BITMAP
B7000000000000
B7000000000000
BFFFFFFEDB5000
B700000136DA00
B7000000002F40
B7000000000C80
B7000000000C70
B7000000002F40
B700000026DA00
BFFFFFFFDB5000
B7000000000000
B7000000000000
B7000000000000
B7000000000000
ENDCHAR
STARTCHAR germandbls
ENCODING 223
SWIDTH 863 0
DWIDTH 17 0
BBX 15 14 1 0
BITMAP
00039CEFEDA50000
008E8310137DC100
07D200000001CA00
0E50000000006D00
2F1000000000AB00
2F100000025AD200
2F100CFFFFFC3000
2F1000001259E900
2F10000000002D90
2F100000000005F0
2F100000000004F0
2F10000000000AB0
2F10C8420126CC20
2F1037BDEFEB6000
ENDCHAR
STARTCHAR agrave
ENCODING 224
SWIDTH 888 0
DWIDTH 18 0
BBX 15 18 1 0
BITMAP
00006A2000000000
000029E920000000
00000017B0000000
0000000000000000
0047BDEFEDA61000
07B74210125AD300
0000000000004E10
0000000000000B70
0000000000000990
000001468ACDEF90
0017CFC975321990
06EB510000000990
4F50000000000990
AA00000000000990
B800000000000990
8D10000000005D90
1CD73101369D9B90
006BDFEDB9510990
ENDCHAR
STARTCHAR aacute
ENCODING 225
SWIDTH 888 0
DWIDTH 18 0
BBX 15 18 1 0
BITMAP
0000000005C10000
00000004CD600000
0000003B50000000
0000000000000000
0047BDEFEDA61000
07B74210125AD300
0000000000004E10
0000000000000B70
0000000000000990
000001468ACDEF90
0017CFC975321990
06EB510000000990
4F50000000000990
AA00000000000990
B800000000000990
8D10000000005D90
1CD73101369D9B90
006BDFEDB9510990
ENDCHAR
STARTCHAR acircumflex
ENCODING 226
SWIDTH 888 0
DWIDTH 18 0
BBX 15 18 1 0
BITMAP
0000003C91000000
000019B25C500000
0000A50001950000
0000000000000000
0047BDEFEDA61000
07B74210125AD300
0000000000004E10
0000000000000B70
0000000000000990
000001468ACDEF90
0017CFC975321990
06EB510000000990
4F50000000000990
AA00000000000990
B800000000000990
8D10000000005D90
1CD73101369D9B90
006BDFEDB9510990
ENDCHAR
STARTCHAR atilde
ENCODING 227
SWIDTH 888 0
DWIDTH 18 0
BBX 15 17 1 0
BITMAP
00002CEA41C20000
00008816CE900000
0000000000000000
0047BDEFEDA61000
07B74210125AD300
0000000000004E10
0000000000000B70
0000000000000990
000001468ACDEF90
0017CFC975321990
06EB510000000990
4F50000000000990
AA00000000000990
B800000000000990
8D10000000005D90
1CD73101369D9B90
006BDFEDB9510990
ENDCHAR
STARTCHAR adieresis
ENCODING 228
SWIDTH 888 0
DWIDTH 18 0
BBX 15 16 1 0
BITMAP
00000D800E700000
0000000000000000
0047BDEFEDA61000
07B74210125AD300
0000000000004E10
0000000000000B70
0000000000000990
000001468ACDEF90
0017CFC975321990
06EB510000000990
4F50000000000990
AA00000000000990
B800000000000990
8D10000000005D90
1CD73101369D9B90
006BDFEDB9510990
ENDCHAR
STARTCHAR aring
ENCODING 229
SWIDTH 888 0
DWIDTH 18 0
BBX 15 19 1 0
BITMAP
000002BED7000000
00000A812D400000
00000A802D400000
000002BEE7000000
0000000000000000
0047BDEFEDA61000
07B74210125AD300
0000000000004E10
0000000000000B70
0000000000000990
000001468ACDEF90
0017CFC975321990
06EB510000000990
4F50000000000990
AA00000000000990
B800000000000990
8D10000000005D90
1CD73101369D9B90
006BDFEDB9510990
ENDCHAR
STARTCHAR ae
ENCODING 230
SWIDTH 1551 0
DWIDTH 31 0
BBX 29 14 1 0
BITMAP
0047BDEFEDA61000038CEFEB820000
07B74210125AE401AD6310149E7000
0000000000004E3C8000000002D800
0000000000000BE900000000002E30
00000000000009E100000000000990
000001468ACDEFB0000000000005C0
0017CFCA75321AFFFFFFFFFFFFFFE0
06EB5100000008A000000000000000
4F500000000006D000000000000000
AA000000000002F400000000000000
B8000000000002EC10000000000000
8D10000000018E7AC2000000000000
1CD7310236BD81008E952101258A00
006BEFEEC9500000027BDEFECA6200
ENDCHAR
STARTCHAR ccedilla
ENCODING 231
SWIDTH 869 0
DWIDTH 17 0
BBX 15 18 1 -4
BITMAP
000038BDFED94000
001AE8421125AC40
01D91000000002A0
0BA0000000000000
3F10000000000000
8B00000000000000
A900000000000000
A900000000000000
8B00000000000000
3F10000000000000
0B90000000000000
01D91000000001A0
001AD84101259C50
000037CEFED94000
0000000490000000
00000009FC200000
000000001B700000
000000EFFC200000
ENDCHAR
STARTCHAR egrave
ENCODING 232
SWIDTH 910 0
DWIDTH 18 0
BBX 16 18 1 0
BITMAP
00001C5000000000
000017DC40000000
00000005C3000000
0000000000000000
000049DEFEB72000
001BC6210149E700
01D8000000002D80
0B900000000002E2
3E100000000000A8
8A0000000000006C
AFFFFFFFFFFFFFFD
AA00000000000000
8D00000000000000
3F40000000000000
0BC1000000000000
02DB200000000000
001AE952101358A0
000038BEFFECA610
ENDCHAR
STARTCHAR eacute
ENCODING 233
SWIDTH 910 0
DWIDTH 18 0
BBX 16 18 1 0
BITMAP
0000000003A50000
000000029E920000
0000000C71000000
0000000000000000
000049DEFEB72000
001BC6210149E700
01D8000000002D80
0B900000000002E2
3E100000000000A8
8A0000000000006C
AFFFFFFFFFFFFFFD
AA00000000000000
8D00000000000000
3F40000000000000
0BC1000000000000
02DB200000000000
001AE952101358A0
000038BEFFECA610
ENDCHAR
STARTCHAR ecircumflex
ENCODING 234
SWIDTH 910 0
DWIDTH 18 0
BBX 16 18 1 0
BITMAP
00000019B3000000
000006C52B810000
0000681000590000
0000000000000000
000049DEFEB72000
001BC6210149E700
01D8000000002D80
0B900000000002E2
3E100000000000A8
8A0000000000006C
AFFFFFFFFFFFFFFD
AA00000000000000
8D00000000000000
3F40000000000000
0BC1000000000000
02DB200000000000
001AE952101358A0
000038BEFFECA610
ENDCHAR
STARTCHAR edieresis
ENCODING 235
SWIDTH 910 0
DWIDTH 18 0
BBX 16 16 1 0
BITMAP
000008E009C00000
0000000000000000
000049DEFEB72000
001BC6210149E700
01D8000000002D80
0B900000000002E2
3E100000000000A8
8A0000000000006C
AFFFFFFFFFFFFFFD
AA00000000000000
8D00000000000000
3F40000000000000
0BC1000000000000
02DB200000000000
001AE952101358A0
000038BEFFECA610
ENDCHAR
STARTCHAR igrave
ENCODING 236
SWIDTH 287 0
DWIDTH 6 0
BBX 5 18 -1 0
BITMAP
5B3000
28EA20
0017C0
000000
000B70
000B70
000B70
000B70
000B70
000B70
000B70
000B70
000B70
000B70
000B70
000B70
000B70
000B70
ENDCHAR
STARTCHAR iacute
ENCODING 237
SWIDTH 287 0
DWIDTH 6 0
BBX 6 18 1 0
BITMAP
0004C1
04BD71
2C5000
000000
0B7000
0B7000
0B7000
0B7000
0B7000
0B7000
0B7000
0B7000
0B7000
0B7000
0B7000
0B7000
0B7000
0B7000
ENDCHAR
STARTCHAR icircumflex
ENCODING 238
SWIDTH 287 0
DWIDTH 6 0
BBX 8 18 -1 0
BITMAP
003B9100
18B34C60
96000187
00000000
000B7000
000B7000
000B7000
000B7000
000B7000
000B7000
000B7000
000B7000
000B7000
000B7000
000B7000
000B7000
000B7000
000B7000
ENDCHAR
STARTCHAR idieresis
ENCODING 239
SWIDTH 287 0
DWIDTH 6 0
BBX 6 16 0 0
BITMAP
CA00D8
000000
00B700
00B700
00B700
00B700
00B700
00B700
00B700
00B700
00B700
00B700
00B700
00B700
00B700
00B700
ENDCHAR
STARTCHAR eth
ENCODING 240
SWIDTH 910 0
DWIDTH 18 0
BBX 17 14 0 0
BITMAP
00BFFFFFFECA720000
00B700000136BF9000
00B70000000003EA00
00B700000000003F40
00B700000000000B90
00B7000000000007C0
BFFFFFFFF0000006D0
00B7000000000006D0
00B7000000000007C0
00B700000000000B90
00B700000000002F30
00B70000000002CA00
00B7000001249E9000
00BFFFFFFEDB720000
ENDCHAR
STARTCHAR ntilde
ENCODING 241
SWIDTH 933 0
DWIDTH 19 0
BBX 15 17 2 0
BITMAP
00009EC618800000
0003C14AEC100000
0000000000000000
B700049DEFD93000
B705DC620127E500
B9BC300000005E10
BF70000000000E50
B800000000000C70
B700000000000B70
B700000000000B70
B700000000000B70
B700000000000B70
B700000000000B70
B700000000000B70
B700000000000B70
B700000000000B70
B700000000000B70
ENDCHAR
STARTCHAR ograve
ENCODING 242
SWIDTH 983 0
DWIDTH 20 0
BBX 18 18 1 0
BITMAP
000005A30000000000
0000029EA200000000
000000017C00000000
000000000000000000
000038CDFEDB720000
002AD74101249E8000
02D80000000002CB00
0B9000000000001D70
3F10000000000006E0
8B00000000000001F3
A900000000000000E5
A900000000000000E5
8B00000000000001F3
4F10000000000006E0
0C9000000000001D70
02E80000000002CB00
002BD73101249E8000
000049CEFEDB720000
ENDCHAR
STARTCHAR oacute
ENCODING 243
SWIDTH 983 0
DWIDTH 20 0
BBX 18 18 1 0
BITMAP
00000000005C100000
000000004CD7100000
00000003C500000000
000000000000000000
000038CDFEDB720000
002AD74101249E8000
02D80000000002CB00
0B9000000000001D70
3F10000000000006E0
8B00000000000001F3
A900000000000000E5
A900000000000000E5
8B00000000000001F3
4F10000000000006E0
0C9000000000001D70
02E80000000002CB00
002BD73101249E8000
000049CEFEDB720000
ENDCHAR
STARTCHAR ocircumflex
ENCODING 244
SWIDTH 983 0
DWIDTH 20 0
BBX 18 18 1 0
BITMAP
00000003B910000000
0000018B25C6000000
000009500018600000
000000000000000000
000038CDFEDB720000
002AD74101249E8000
02D80000000002CB00
0B9000000000001D70
3F10000000000006E0
8B00000000000001F3
A900000000000000E5
A900000000000000E5
8B00000000000001F3
4F10000000000006E0
0C9000000000001D70
02E80000000002CB00
002BD73101249E8000
000049CEFEDB720000
ENDCHAR
STARTCHAR otilde
ENCODING 245
SWIDTH 983 0
DWIDTH 20 0
BBX 18 17 1 0
BITMAP
000001BEA41C300000
000007816CE9000000
000000000000000000
000038CDFEDB720000
002AD74101249E8000
02D80000000002CB00
0B9000000000001D70
3F10000000000006E0
8B00000000000001F3
A900000000000000E5
A900000000000000E5
8B00000000000001F3
4F10000000000006E0
0C9000000000001D70
02E80000000002CB00
002BD73101249E8000
000049CEFEDB720000
ENDCHAR
STARTCHAR odieresis
ENCODING 246
SWIDTH 983 0
DWIDTH 20 0
BBX 18 16 1 0
BITMAP
000000C900D8000000
000000000000000000
000038CDFEDB720000
002AD74101249E8000
02D80000000002CB00
0B9000000000001D70
3F10000000000006E0
8B00000000000001F3
A900000000000000E5
A900000000000000E5
8B00000000000001F3
4F10000000000006E0
0C9000000000001D70
02E80000000002CB00
002BD73101249E8000
000049CEFEDB720000
ENDCHAR
STARTCHAR divide
ENCODING 247
SWIDTH 634 0
DWIDTH 13 0
BBX 10 7 1 3
BITMAP
00004F0000
00004F0000
0000000000
5FFFFFFFFF
0000000000
00004F0000
00004F0000
ENDCHAR
STARTCHAR oslash
ENCODING 248
SWIDTH 983 0
DWIDTH 20 0
BBX 18 18 1 -2
BITMAP
00000000000001E400
00000000000008A000
000038CDFEDB8E1000
002AD7410125FD8000
02D80000000981AA00
0B900000005C001C70
3F10000001E30005D0
8B0000000B700001F3
A90000006C000000E5
99000002E2000000E5
8B00000C60000001F3
4F10008B00000006E0
0C9003E10000001D70
02E81D50000002CB00
002BED3101249E8000
0005D8CEFEDB720000
001D40000000000000
008B00000000000000
ENDCHAR
STARTCHAR ugrave
ENCODING 249
SWIDTH 931 0
DWIDTH 19 0
BBX 15 18 2 0
BITMAP
0000C60000000000
00006CD500000000
0000004B50000000
0000000000000000
C700000000000D50
C700000000000D50
C700000000000D50
C700000000000D50
C700000000000D50
C700000000000D50
C700000000000D50
C700000000000D50
C700000000000D50
C700000000000D50
A900000000008F50
4E100000004DAE50
09C520137DB40D50
005BEFEC83000D50
ENDCHAR
STARTCHAR uacute
ENCODING 250
SWIDTH 931 0
DWIDTH 19 0
BBX 15 18 2 0
BITMAP
0000000029700000
00000018EA300000
000000A810000000
0000000000000000
C700000000000D50
C700000000000D50
C700000000000D50
C700000000000D50
C700000000000D50
C700000000000D50
C700000000000D50
C700000000000D50
C700000000000D50
C700000000000D50
A900000000008F50
4E100000004DAE50
09C520137DB40D50
005BEFEC83000D50
ENDCHAR
STARTCHAR ucircumflex
ENCODING 251
SWIDTH 931 0
DWIDTH 19 0
BBX 15 18 2 0
BITMAP
0000018C40000000
00004C62AA100000
0004910004B00000
0000000000000000
C700000000000D50
C700000000000D50
C700000000000D50
C700000000000D50
C700000000000D50
C700000000000D50
C700000000000D50
C700000000000D50
C700000000000D50
C700000000000D50
A900000000008F50
4E100000004DAE50
09C520137DB40D50
005BEFEC83000D50
ENDCHAR
STARTCHAR udieresis
ENCODING 252
SWIDTH 931 0
DWIDTH 19 0
BBX 15 16 2 0
BITMAP
00006F107E000000
0000000000000000
C700000000000D50
C700000000000D50
C700000000000D50
C700000000000D50
C700000000000D50
C700000000000D50
C700000000000D50
C700000000000D50
C700000000000D50
C700000000000D50
A900000000008F50
4E100000004DAE50
09C520137DB40D50
005BEFEC83000D50
ENDCHAR
STARTCHAR yacute
ENCODING 253
SWIDTH 911 0
DWIDTH 18 0
BBX 15 18 1 0
BITMAP
0000000005C10000
00000004CD710000
0000003C50000000
0000000000000000
3F000000000004E0
3F000000000004E0
3F000000000004E0
3F100000000004E0
1F300000000008E0
0C70000000005FE0
05E200000007E7E0
008E731026CB24E0
00039DFFD94004E0
00000000000006D0
0000000000001D90
000000000001BD10
3C842100249EC200
048BDEFFEC940000
ENDCHAR
STARTCHAR thorn
ENCODING 254
SWIDTH 787 0
DWIDTH 16 0
BBX 13 14 2 0
BITMAP
B7000000000000
B7000000000000
BFFFFFFEDB5000
B700000136DA00
B7000000002F40
B7000000000C80
B7000000000C70
B7000000002F40
B700000026DA00
BFFFFFFFDB5000
B7000000000000
B7000000000000
B7000000000000
B7000000000000
ENDCHAR
STARTCHAR ydieresis
ENCODING 255
SWIDTH 911 0
DWIDTH 18 0
BBX 15 16 1 0
BITMAP
00000C900D800000
0000000000000000
3F000000000004E0
3F000000000004E0
3F000000000004E0
3F100000000004E0
1F300000000008E0
0C70000000005FE0
05E200000007E7E0
008E731026CB24E0
00039DFFD94004E0
00000000000006D0
0000000000001D90
000000000001BD10
3C842100249EC200
048BDEFFEC940000
ENDCHAR
STARTCHAR Amacron
ENCODING 256
SWIDTH 812 0
DWIDTH 16 0
BBX 16 16 0 0
BITMAP
000008FFFFC00000
0000000000000000
0000000CF2000000
0000005EB9000000
000000C73F200000
000005E10A900000
00000C7003F20000
00005E1000A90000
0000C700003F2000
0005E100000A9000
000C70000003F200
005FFFFFFFFFF900
00D5000000001E20
05D0000000000990
0D600000000002F2
5E100000000000A9
ENDCHAR
STARTCHAR amacron
ENCODING 257
SWIDTH 888 0
DWIDTH 18 0
BBX 15 16 1 0
BITMAP
00000DFFFF700000
0000000000000000
0047BDEFEDA61000
07B74210125AD300
0000000000004E10
0000000000000B70
0000000000000990
000001468ACDEF90
0017CFC975321990
06EB510000000990
4F50000000000990
AA00000000000990
B800000000000990
8D10000000005D90
1CD73101369D9B90
006BDFEDB9510990
ENDCHAR
STARTCHAR Abreve
ENCODING 258
SWIDTH 812 0
DWIDTH 16 0
BBX 16 17 0 0
BITMAP
00001E6114D40000
000003BEFC500000
0000000000000000
0000000CF2000000
0000005EB9000000
000000C73F200000
000005E10A900000
00000C7003F20000
00005E1000A90000
0000C700003F2000
0005E100000A9000
000C70000003F200
005FFFFFFFFFF900
00D5000000001E20
05D0000000000990
0D600000000002F2
5E100000000000A9
ENDCHAR
STARTCHAR abreve
ENCODING 259
SWIDTH 888 0
DWIDTH 18 0
BBX 15 17 1 0
BITMAP
00005D4117D00000
000006DFEA200000
0000000000000000
0047BDEFEDA61000
07B74210125AD300
0000000000004E10
0000000000000B70
0000000000000990
000001468ACDEF90
0017CFC975321990
06EB510000000990
4F50000000000990
AA00000000000990
B800000000000990
8D10000000005D90
1CD73101369D9B90
006BDFEDB9510990
ENDCHAR
STARTCHAR Aogonek
ENCODING 260
SWIDTH 812 0
DWIDTH 16 0
BBX 18 17 0 -3
BITMAP
0000000CF200000000
0000005EB900000000
000000C73F20000000
000005E10A90000000
00000C7003F2000000
00005E1000A9000000
0000C700003F200000
0005E100000A900000
000C70000003F20000
005FFFFFFFFFF90000
00D5000000001E2000
05D000000000099000
0D600000000002F200
5E100000000000A900
00000000000006A200
0000000000001F3000
00000000000009EFF3
ENDCHAR
STARTCHAR aogonek
ENCODING 261
SWIDTH 888 0
DWIDTH 18 0
BBX 17 17 1 -3
BITMAP
0047BDEFEDA6100000
07B74210125AD30000
0000000000004E1000
0000000000000B7000
000000000000099000
000001468ACDEF9000
0017CFC97532199000
06EB51000000099000
4F5000000000099000
AA0000000000099000
B80000000000099000
8D10000000018F9000
1CD7310137BE9B9000
006BDFEDB951099000
000000000000781000
000000000002E10000
000000000001AEFF10
ENDCHAR
STARTCHAR Cacute
ENCODING 262
SWIDTH 869 0
DWIDTH 17 0
BBX 15 18 1 0
BITMAP
00000000005C0000
000000005CD60000
00000004B4000000
0000000000000000
000038BDFED94000
001AE8421125AC40
01D91000000002A0
0BA0000000000000
3F10000000000000
8B00000000000000
A900000000000000
A900000000000000
8B00000000000000
3F10000000000000
0B90000000000000
01D91000000001A0
001AD84101259C50
000038CDFED94000
ENDCHAR
STARTCHAR cacute
ENCODING 263
SWIDTH 869 0
DWIDTH 17 0
BBX 15 18 1 0
BITMAP
00000000005C0000
000000004CD60000
00000004B4000000
0000000000000000
000038BDFED94000
001AE8421125AC40
01D91000000002A0
0BA0000000000000
3F10000000000000
8B00000000000000
A900000000000000
A900000000000000
8B00000000000000
3F10000000000000
0B90000000000000
01D91000000001A0
001AD84101259C50
000038CDFED94000
ENDCHAR
STARTCHAR Ccircumflex
ENCODING 264
SWIDTH 869 0
DWIDTH 17 0
BBX 15 18 1 0
BITMAP
00000004C8100000
0000019A26C50000
00000A4000195000
0000000000000000
000038BDFED94000
001AE8421125AC40
01D91000000002A0
0BA0000000000000
3F10000000000000
8B00000000000000
A900000000000000
A900000000000000
8B00000000000000
3F10000000000000
0B90000000000000
01D91000000001A0
001AD84101259C50
000038CDFED94000
ENDCHAR
STARTCHAR ccircumflex
ENCODING 265
SWIDTH 869 0
DWIDTH 17 0
BBX 15 18 1 0
BITMAP
00000003C8100000
0000019A26C50000
00000A5000195000
0000000000000000
000038BDFED94000
001AE8421125AC40
01D91000000002A0
0BA0000000000000
3F10000000000000
8B00000000000000
A900000000000000
A900000000000000
8B00000000000000
3F10000000000000
0B90000000000000
01D91000000001A0
001AD84101259C50
000038CDFED94000
ENDCHAR
STARTCHAR Cdotaccent
ENCODING 266
SWIDTH 869 0
DWIDTH 17 0
BBX 15 17 1 0
BITMAP
00000000F8000000
00000000F8000000
0000000000000000
000038BDFED94000
001AE8421125AC40
01D91000000002A0
0BA0000000000000
3F10000000000000
8B00000000000000
A900000000000000
A900000000000000
8B00000000000000
3F10000000000000
0B90000000000000
01D91000000001A0
001AD84101259C50
000038CDFED94000
ENDCHAR
STARTCHAR cdotaccent
ENCODING 267
SWIDTH 869 0
DWIDTH 17 0
BBX 15 17 1 0
BITMAP
00000000F8000000
00000000F8000000
0000000000000000
000038BDFED94000
001AE8421125AC40
01D91000000002A0
0BA0000000000000
3F10000000000000
8B00000000000000
A900000000000000
A900000000000000
8B00000000000000
3F10000000000000
0B90000000000000
01D91000000001A0
001AD84101259C50
000038CDFED94000
ENDCHAR
STARTCHAR Ccaron
ENCODING 268
SWIDTH 869 0
DWIDTH 17 0
BBX 15 18 1 0
BITMAP
00000B5000195000
000001AB37D50000
00000004C8100000
0000000000000000
000038BDFED94000
001AE8421125AC40
01D91000000002A0
0BA0000000000000
3F10000000000000
8B00000000000000
A900000000000000
A900000000000000
8B00000000000000
3F10000000000000
0B90000000000000
01D91000000001A0
001AD84101259C50
000038CDFED94000
ENDCHAR
STARTCHAR ccaron
ENCODING 269
SWIDTH 869 0
DWIDTH 17 0
BBX 15 18 1 0
BITMAP
00000A5000195000
0000019B37D50000
00000004C8100000
0000000000000000
000038BDFED94000
001AE8421125AC40
01D91000000002A0
0BA0000000000000
3F10000000000000
8B00000000000000
A900000000000000
A900000000000000
8B00000000000000
3F10000000000000
0B90000000000000
01D91000000001A0
001AD84101259C50
000038CDFED94000
ENDCHAR
STARTCHAR Dcaron
ENCODING 270
SWIDTH 910 0
DWIDTH 18 0
BBX 15 18 2 0
BITMAP
00B40002A4000000
002AB38C40000000
00004C7000000000
0000000000000000
BFFFFFFFEC830000
B7000000148E9000
B70000000002D900
B700000000003F30
B700000000000B80
B7000000000007C0
B7000000000006D0
B7000000000006D0
B7000000000007C0
B700000000000B90
B700000000003F30
B70000000001D900
B7000000148E9000
BFFFFFFFEC830000
ENDCHAR
STARTCHAR dcaron
ENCODING 271
SWIDTH 910 0
DWIDTH 18 0
BBX 15 18 2 0
BITMAP
00B40002A4000000
002AB38C40000000
00004C8000000000
0000000000000000
BFFFFFFFEC830000
B7000000148E9000
B70000000002D900
B700000000003F30
B700000000000B80
B7000000000007C0
B7000000000006D0
B7000000000006D0
B7000000000007C0
B700000000000B90
B700000000003F30
B70000000001D900
B7000000148E9000
BFFFFFFFEC830000
ENDCHAR
STARTCHAR Dcroat
ENCODING 272
SWIDTH 910 0
DWIDTH 18 0
BBX 17 14 0 0
BITMAP
00BFFFFFFECA720000
00B700000136BF9000
00B70000000003EA00
00B700000000003F40
00B700000000000B90
00B7000000000007C0
BFFFFFFFF0000006D0
00B7000000000006D0
00B7000000000007C0
00B700000000000B90
00B700000000002F30
00B70000000002CA00
00B7000001249E9000
00BFFFFFFEDB720000
ENDCHAR
STARTCHAR dcroat
ENCODING 273
SWIDTH 910 0
DWIDTH 18 0
BBX 17 14 0 0
BITMAP
00BFFFFFFECA720000
00B700000136BF9000
00B70000000003EA00
00B700000000003F40
00B700000000000B90
00B7000000000007C0
BFFFFFFFF0000006D0
00B7000000000006D0
00B7000000000007C0
00B700000000000B90
00B700000000002F30
00B70000000002CA00
00B7000001249E9000
00BFFFFFFEDB720000
ENDCHAR
STARTCHAR Emacron
ENCODING 274
SWIDTH 754 0
DWIDTH 15 0
BBX 12 16 2 0
BITMAP
000EFFFF6000
000000000000
BFFFFFFFFFF7
B90000000000
B90000000000
B90000000000
B90000000000
B90000000000
BFFFFFFFFFE0
B90000000000
B90000000000
B90000000000
B90000000000
B90000000000
B90000000000
BFFFFFFFFFF9
ENDCHAR
STARTCHAR emacron
ENCODING 275
SWIDTH 910 0
DWIDTH 18 0
BBX 16 16 1 0
BITMAP
000008FFFFC00000
0000000000000000
000049DEFEB72000
001BC6210149E700
01D8000000002D80
0B900000000002E2
3E100000000000A8
8A0000000000006C
AFFFFFFFFFFFFFFD
AA00000000000000
8D00000000000000
3F40000000000000
0BC1000000000000
02DB200000000000
001AE952101358A0
000038BEFFECA610
ENDCHAR
STARTCHAR Ebreve
ENCODING 276
SWIDTH 754 0
DWIDTH 15 0
BBX 12 17 2 0
BITMAP
006D3017D000
0006DFEA2000
000000000000
BFFFFFFFFFF7
B90000000000
B90000000000
B90000000000
B90000000000
B90000000000
BFFFFFFFFFE0
B90000000000
B90000000000
B90000000000
B90000000000
B90000000000
B90000000000
BFFFFFFFFFF9
ENDCHAR
STARTCHAR ebreve
ENCODING 277
SWIDTH 910 0
DWIDTH 18 0
BBX 16 17 1 0
BITMAP
00001E6114D40000
000003BEFC500000
0000000000000000
000049DEFEB72000
001BC6210149E700
01D8000000002D80
0B900000000002E2
3E100000000000A8
8A0000000000006C
AFFFFFFFFFFFFFFD
AA00000000000000
8D00000000000000
3F40000000000000
0BC1000000000000
02DB200000000000
001AE952101358A0
000038BEFFECA610
ENDCHAR
STARTCHAR Edotaccent
ENCODING 278
SWIDTH 754 0
DWIDTH 15 0
BBX 12 17 2 0
BITMAP
00000F800000
00000F800000
000000000000
BFFFFFFFFFF7
B90000000000
B90000000000
B90000000000
B90000000000
B90000000000
BFFFFFFFFFE0
B90000000000
B90000000000
B90000000000
B90000000000
B90000000000
B90000000000
BFFFFFFFFFF9
ENDCHAR
STARTCHAR edotaccent
ENCODING 279
SWIDTH 910 0
DWIDTH 18 0
BBX 16 17 1 0
BITMAP
00000009D0000000
00000009D0000000
0000000000000000
000049DEFEB72000
001BC6210149E700
01D8000000002D80
0B900000000002E2
3E100000000000A8
8A0000000000006C
AFFFFFFFFFFFFFFD
AA00000000000000
8D00000000000000
3F40000000000000
0BC1000000000000
02DB200000000000
001AE952101358A0
000038BEFFECA610
ENDCHAR
STARTCHAR Eogonek
ENCODING 280
SWIDTH 754 0
DWIDTH 15 0
BBX 12 17 2 -3
BITMAP
BFFFFFFFFFF7
B90000000000
B90000000000
B90000000000
B90000000000
B90000000000
BFFFFFFFFFE0
B90000000000
B90000000000
B90000000000
B90000000000
B90000000000
B90000000000
BFFFFFFFFFF9
00000002B620
000000099000
00000005DFF9
ENDCHAR
STARTCHAR eogonek
ENCODING 281
SWIDTH 910 0
DWIDTH 18 0
BBX 16 17 1 -3
BITMAP
000049DEFEB72000
001BC6210149E700
01D8000000002D80
0B900000000002E2
3E100000000000A8
8A0000000000006C
AFFFFFFFFFFFFFFD
AA00000000000000
8D00000000000000
3F40000000000000
0BC1000000000000
02DB200000000000
001AE952101358A0
000038BEFFECEB20
000000000005B000
000000000009A100
000000000003CFFA
ENDCHAR
STARTCHAR Ecaron
ENCODING 282
SWIDTH 754 0
DWIDTH 15 0
BBX 12 18 2 0
BITMAP
00B500019500
001AB37D5000
00004C810000
000000000000
BFFFFFFFFFF7
B90000000000
B90000000000
B90000000000
B90000000000
B90000000000
BFFFFFFFFFE0
B90000000000
B90000000000
B90000000000
B90000000000
B90000000000
B90000000000
BFFFFFFFFFF9
ENDCHAR
STARTCHAR ecaron
ENCODING 283
SWIDTH 910 0
DWIDTH 18 0
BBX 16 18 1 0
BITMAP
0000681000690000
000006D64C910000
00000019C3000000
0000000000000000
000049DEFEB72000
001BC6210149E700
01D8000000002D80
0B900000000002E2
3E100000000000A8
8A0000000000006C
AFFFFFFFFFFFFFFD
AA00000000000000
8D00000000000000
3F40000000000000
0BC1000000000000
02DB200000000000
001AE952101358A0
000038BEFFECA610
ENDCHAR
STARTCHAR Gcircumflex
ENCODING 284
SWIDTH 910 0
DWIDTH 18 0
BBX 16 18 1 0
BITMAP
00000002BA100000
0000018B34C60000
0000096000087000
0000000000000000
000027BDEFDA6100
0019E95210248D60
01CA100000000183
0BA0000000000000
3F20000000000000
8B00000000000000
A900000000000000
A90000002FFFFFF8
8C000000000000A8
3F200000000000A8
0BB00000000000A8
02DB1000000000A8
001AE952101247D8
000028BDEFEDB840
ENDCHAR
STARTCHAR gcircumflex
ENCODING 285
SWIDTH 910 0
DWIDTH 18 0
BBX 16 18 1 0
BITMAP
00000002BA100000
0000018B34C60000
0000096000087000
0000000000000000
000027BDEFDA6100
0019E95210248D60
01CA100000000183
0BA0000000000000
3F20000000000000
8B00000000000000
A900000000000000
A90000002FFFFFF8
8C000000000000A8
3F200000000000A8
0BB00000000000A8
02DB1000000000A8
001AE952101247D8
000028BDEFEDB840
ENDCHAR
STARTCHAR Gbreve
ENCODING 286
SWIDTH 910 0
DWIDTH 18 0
BBX 16 17 1 0
BITMAP
000003E4116E1000
0000005CFEB30000
0000000000000000
000027BDEFDA6100
0019E95210248D60
01CA100000000183
0BA0000000000000
3F20000000000000
8B00000000000000
A900000000000000
A90000002FFFFFF8
8C000000000000A8
3F200000000000A8
0BB00000000000A8
02DB1000000000A8
001AE952101247D8
000028BDEFEDB840
ENDCHAR
STARTCHAR gbreve
ENCODING 287
SWIDTH 910 0
DWIDTH 18 0
BBX 16 17 1 0
BITMAP
000003E4116E1000
0000005CFEB30000
0000000000000000
000027BDEFDA6100
0019E95210248D60
01CA100000000183
0BA0000000000000
3F20000000000000
8B00000000000000
A900000000000000
A90000002FFFFFF8
8C000000000000A8
3F200000000000A8
0BB00000000000A8
02DB1000000000A8
001AE952101247D8
000028BDEFEDB840
ENDCHAR
STARTCHAR Gdotaccent
ENCODING 288
SWIDTH 910 0
DWIDTH 18 0
BBX 16 17 1 0
BITMAP
00000000DA000000
00000000DA000000
0000000000000000
000027BDEFDA6100
0019E95210248D60
01CA100000000183
0BA0000000000000
3F20000000000000
8B00000000000000
A900000000000000
A90000002FFFFFF8
8C000000000000A8
3F200000000000A8
0BB00000000000A8
02DB1000000000A8
001AE952101247D8
000028BDEFEDB840
ENDCHAR
STARTCHAR gdotaccent
ENCODING 289
SWIDTH 910 0
DWIDTH 18 0
BBX 16 17 1 0
BITMAP
00000000DA000000
00000000DA000000
0000000000000000
000027BDEFDA6100
0019E95210248D60
01CA100000000183
0BA0000000000000
3F20000000000000
8B00000000000000
A900000000000000
A90000002FFFFFF8
8C000000000000A8
3F200000000000A8
0BB00000000000A8
02DB1000000000A8
001AE952101247D8
000028BDEFEDB840
ENDCHAR
STARTCHAR Gcommaaccent
ENCODING 290
SWIDTH 910 0
DWIDTH 18 0
BBX 16 18 1 -4
BITMAP
000027BDEFDA6100
0019E95210248D60
01CA100000000183
0BA0000000000000
3F20000000000000
8B00000000000000
A900000000000000
A90000002FFFFFF8
8C000000000000A8
3F200000000000A8
0BB00000000000A8
02DB1000000000A8
001AE952101247D8
000028BDEFEDB840
0000000000000000
000000008D000000
0000000099000000
00000000B5000000
ENDCHAR
STARTCHAR gcommaaccent
ENCODING 291
SWIDTH 910 0
DWIDTH 18 0
BBX 16 18 1 -4
BITMAP
000027BDEFDA6100
0019E95210248D60
01CA100000000183
0BA0000000000000
3F20000000000000
8B00000000000000
A900000000000000
A90000002FFFFFF8
8C000000000000A8
3F200000000000A8
0BB00000000000A8
02DB1000000000A8
001AE952101247D8
000028BDEFEDB840
0000000000000000
000000008D000000
0000000099000000
00000000B5000000
ENDCHAR
STARTCHAR Hcircumflex
ENCODING 292
SWIDTH 949 0
DWIDTH 19 0
BBX 15 18 2 0
BITMAP
0000006D60000000
00003B818B300000
0001B20002B10000
0000000000000000
B7000000000008B0
B7000000000008B0
B7000000000008B0
B7000000000008B0
B7000000000008B0
B7000000000008B0
BFFFFFFFFFFFFFB0
B7000000000008B0
B7000000000008B0
B7000000000008B0
B7000000000008B0
B7000000000008B0
B7000000000008B0
B7000000000008B0
ENDCHAR
STARTCHAR hcircumflex
ENCODING 293
SWIDTH 949 0
DWIDTH 19 0
BBX 15 18 2 0
BITMAP
0000006D60000000
00003B818B300000
0001B20002B10000
0000000000000000
B7000000000008B0
B7000000000008B0
B7000000000008B0
B7000000000008B0
B7000000000008B0
B7000000000008B0
BFFFFFFFFFFFFFB0
B7000000000008B0
B7000000000008B0
B7000000000008B0
B7000000000008B0
B7000000000008B0
B7000000000008B0
B7000000000008B0
ENDCHAR
STARTCHAR Hbar
ENCODING 294
SWIDTH 949 0
DWIDTH 19 0
BBX 19 14 0 0
BITMAP
00B7000000000008B000
00B7000000000008B000
00B7000000000008B000
7FFFFFFFFFFFFFFFFF70
00B7000000000008B000
00B7000000000008B000
00BFFFFFFFFFFFFFB000
00B7000000000008B000
00B7000000000008B000
00B7000000000008B000
00B7000000000008B000
00B7000000000008B000
00B7000000000008B000
00B7000000000008B000
ENDCHAR
STARTCHAR hbar
ENCODING 295
SWIDTH 949 0
DWIDTH 19 0
BBX 19 14 0 0
BITMAP
00B7000000000008B000
00B7000000000008B000
00B7000000000008B000
7FFFFFFFFFFFFFFFFF70
00B7000000000008B000
00B7000000000008B000
00BFFFFFFFFFFFFFB000
00B7000000000008B000
00B7000000000008B000
00B7000000000008B000
00B7000000000008B000
00B7000000000008B000
00B7000000000008B000
00B7000000000008B000
ENDCHAR
STARTCHAR Itilde
ENCODING 296
SWIDTH 287 0
DWIDTH 6 0
BBX 8 17 -1 0
BITMAP
1BEA41B4
7916CEA0
00000000
000B7000
000B7000
000B7000
000B7000
000B7000
000B7000
000B7000
000B7000
000B7000
000B7000
000B7000
000B7000
000B7000
000B7000
ENDCHAR
STARTCHAR itilde
ENCODING 297
SWIDTH 287 0
DWIDTH 6 0
BBX 8 17 -1 0
BITMAP
1BEA41B4
7916CEA0
00000000
000B7000
000B7000
000B7000
000B7000
000B7000
000B7000
000B7000
000B7000
000B7000
000B7000
000B7000
000B7000
000B7000
000B7000
ENDCHAR
STARTCHAR Imacron
ENCODING 298
SWIDTH 287 0
DWIDTH 6 0
BBX 6 16 0 0
BITMAP
CFFFF8
000000
00B700
00B700
00B700
00B700
00B700
00B700
00B700
00B700
00B700
00B700
00B700
00B700
00B700
00B700
ENDCHAR
STARTCHAR imacron
ENCODING 299
SWIDTH 287 0
DWIDTH 6 0
BBX 6 16 0 0
BITMAP
CFFFF8
000000
00B700
00B700
00B700
00B700
00B700
00B700
00B700
00B700
00B700
00B700
00B700
00B700
00B700
00B700
ENDCHAR
STARTCHAR Ibreve
ENCODING 300
SWIDTH 287 0
DWIDTH 6 0
BBX 8 17 -1 0
BITMAP
4D4116E1
05CFEB30
00000000
000B7000
000B7000
000B7000
000B7000
000B7000
000B7000
000B7000
000B7000
000B7000
000B7000
000B7000
000B7000
000B7000
000B7000
ENDCHAR
STARTCHAR ibreve
ENCODING 301
SWIDTH 287 0
DWIDTH 6 0
BBX 8 17 -1 0
BITMAP
4E4116E1
05CFEB30
00000000
000B7000
000B7000
000B7000
000B7000
000B7000
000B7000
000B7000
000B7000
000B7000
000B7000
000B7000
000B7000
000B7000
000B7000
ENDCHAR
STARTCHAR Iogonek
ENCODING 302
SWIDTH 287 0
DWIDTH 6 0
BBX 5 17 0 -3
BITMAP
00B700
00B700
00B700
00B700
00B700
00B700
00B700
00B700
00B700
00B700
00B700
00B700
00B700
00C700
1A6000
7B1000
3CFFB0
ENDCHAR
STARTCHAR iogonek
ENCODING 303
SWIDTH 287 0
DWIDTH 6 0
BBX 5 17 0 -3
BITMAP
00B700
00B700
00B700
00B700
00B700
00B700
00B700
00B700
00B700
00B700
00B700
00B700
00B700
00C700
1A6000
7B1000
3CFFB0
ENDCHAR
STARTCHAR Idotaccent
ENCODING 304
SWIDTH 287 0
DWIDTH 6 0
BBX 2 17 2 0
BITMAP
D9
D9
00
B7
B7
B7
B7
B7
B7
B7
B7
B7
B7
B7
B7
B7
B7
ENDCHAR
STARTCHAR dotlessi
ENCODING 305
SWIDTH 287 0
DWIDTH 6 0
BBX 2 14 2 0
BITMAP
B7
B7
B7
B7
B7
B7
B7
B7
B7
B7
B7
B7
B7
B7
ENDCHAR
STARTCHAR IJ
ENCODING 306
SWIDTH 877 0
DWIDTH 18 0
BBX 14 14 2 0
BITMAP
B70000000000D6
B70000000000D6
B70000000000D6
B70000000000D6
B70000000000D6
B70000000000D6
B70000000000D6
B70000000000D6
B70000000000D6
B70000000000D5
B70000000000E4
B70000000007D0
B704A521039E40
B70049DFFD9200
ENDCHAR
STARTCHAR ij
ENCODING 307
SWIDTH 877 0
DWIDTH 18 0
BBX 14 14 2 0
BITMAP
B70000000000D6
B70000000000D6
B70000000000D6
B70000000000D6
B70000000000D6
B70000000000D6
B70000000000D6
B70000000000D6
B70000000000D6
B70000000000D5
B70000000000E4
B70000000007D0
B704A521039E40
B70049DFFD9200
ENDCHAR
STARTCHAR Jcircumflex
ENCODING 308
SWIDTH 590 0
DWIDTH 12 0
BBX 13 18 0 0
BITMAP
00000002AA2000
0000007C43C700
00000870000780
00000000000000
00000000990000
00000000990000
00000000990000
00000000990000
00000000990000
00000000990000
00000000990000
00000000990000
00000000990000
00000000990000
00000000B70000
00000004F30000
C631027E700000
38CEFEA4000000
ENDCHAR
STARTCHAR jcircumflex
ENCODING 309
SWIDTH 590 0
DWIDTH 12 0
BBX 13 18 0 0
BITMAP
00000002AA2000
0000007C43C700
00000870000780
00000000000000
00000000990000
00000000990000
00000000990000
00000000990000
00000000990000
00000000990000
00000000990000
00000000990000
00000000990000
00000000990000
00000000B70000
00000004F30000
C631027E700000
38CEFEA4000000
ENDCHAR
STARTCHAR Kcommaaccent
ENCODING 310
SWIDTH 806 0
DWIDTH 16 0
BBX 14 18 2 -4
BITMAP
B8000000005D70
B80000001AC300
B8000006E80000
B80002BD300000
B8006E80000000
B82BD400000000
BBEB1000000000
B87E7000000000
B803DB20000000
B80019E6000000
B800005EA10000
B8000001BE4000
B800000007F910
B8000000003CD3
00000000000000
000008C0000000
00000A80000000
00000C40000000
ENDCHAR
STARTCHAR kcommaaccent
ENCODING 311
SWIDTH 867 0
DWIDTH 17 0
BBX 15 18 2 -4
BITMAP
B70000000001F300
B70000000006E000
B7000000001E6000
B700000001CB0000
B70000005D900000
B700248CC4000000
BFFFFFF820000000
B700136AFA200000
B700000029E50000
B7000000006F5000
B70000000007E100
B70000000000C800
B700000000007D00
B700000000003F10
0000000000000000
000000E600000000
000001F200000000
000003D000000000
ENDCHAR
STARTCHAR kgreenlandic
ENCODING 312
SWIDTH 867 0
DWIDTH 17 0
BBX 15 14 2 0
BITMAP
B70000000001F300
B70000000006E000
B7000000001E6000
B700000001CB0000
B70000005D900000
B700248CC4000000
BFFFFFF820000000
B700136AFA200000
B700000029E50000
B7000000006F5000
B70000000007E100
B70000000000C800
B700000000007D00
B700000000003F10
ENDCHAR
STARTCHAR Lacute
ENCODING 313
SWIDTH 701 0
DWIDTH 14 0
BBX 13 18 1 0
BITMAP
0004C100000000
04BD7100000000
2C500000000000
00000000000000
0B700000000000
0B700000000000
0B700000000000
0B700000000000
0B700000000000
0B700000000000
0B700000000000
0B700000000000
0B700000000000
0B700000000000
0B700000000000
0B700000000000
0B700000000000
0BFFFFFFFFFF40
ENDCHAR
STARTCHAR lacute
ENCODING 314
SWIDTH 709 0
DWIDTH 14 0
BBX 13 18 1 0
BITMAP
0004C100000000
04BD7100000000
2C500000000000
00000000000000
0B700000000000
0B700000000000
0B700000000000
0B700000000000
0B700000000000
0B700000000000
0B700000000000
0B700000000000
0B700000000000
0B700000000000
0A800000000000
07C00000000000
01DB4100000000
0018CEFFFFFFF0
ENDCHAR
STARTCHAR Lcommaaccent
ENCODING 315
SWIDTH 701 0
DWIDTH 14 0
BBX 12 18 2 -4
BITMAP
B70000000000
B70000000000
B70000000000
B70000000000
B70000000000
B70000000000
B70000000000
B70000000000
B70000000000
B70000000000
B70000000000
B70000000000
B70000000000
BFFFFFFFFFF4
000000000000
00000B900000
00000D500000
00000F100000
ENDCHAR
STARTCHAR lcommaaccent
ENCODING 316
SWIDTH 709 0
DWIDTH 14 0
BBX 12 18 2 -4
BITMAP
B70000000000
B70000000000
B70000000000
B70000000000
B70000000000
B70000000000
B70000000000
B70000000000
B70000000000
B70000000000
A80000000000
7C0000000000
1DB410000000
018CEFFFFFFF
000000000000
000005F10000
000007B00000
000008700000
ENDCHAR
STARTCHAR Lcaron
ENCODING 317
SWIDTH 701 0
DWIDTH 14 0
BBX 12 14 2 0
BITMAP
B700000C8000
B700000E4000
B700002F0000
B700005B0000
B70000000000
B70000000000
B70000000000
B70000000000
B70000000000
B70000000000
B70000000000
B70000000000
B70000000000
BFFFFFFFFFF4
ENDCHAR
STARTCHAR lcaron
ENCODING 318
SWIDTH 709 0
DWIDTH 14 0
BBX 12 14 2 0
BITMAP
B700000C8000
B700000E4000
B700002F1000
B700004B0000
B70000000000
B70000000000
B70000000000
B70000000000
B70000000000
B70000000000
A80000000000
7C0000000000
1DB410000000
018CEFFFFFFF
ENDCHAR
STARTCHAR Ldot
ENCODING 319
SWIDTH 701 0
DWIDTH 14 0
BBX 12 14 2 0
BITMAP
B70000000000
B70000000000
B70000000000
B70000000000
B70000000000
B70000000000
B700000FB000
B700000FB000
B70000000000
B70000000000
B70000000000
B70000000000
B70000000000
BFFFFFFFFFF4
ENDCHAR
STARTCHAR ldotaccent
ENCODING 320
SWIDTH 709 0
DWIDTH 14 0
BBX 12 14 2 0
BITMAP
B70000000000
B70000000000
B70000000000
B70000000000
B70000000000
B70000000000
B700000CE000
B700000CE000
B70000000000
B70000000000
A80000000000
7C0000000000
1DB410000000
018CEFFFFFFF
ENDCHAR
STARTCHAR Lslash
ENCODING 321
SWIDTH 701 0
DWIDTH 14 0
BBX 14 14 0 0
BITMAP
00B70000000000
00B70000000000
00B70000000000
00B70000000000
00B70000000000
00B70000000000
00B848C5000000
16DFC840000000
BAD80000000000
00B70000000000
00B70000000000
00B70000000000
00B70000000000
00BFFFFFFFFFF4
ENDCHAR
STARTCHAR lslash
ENCODING 322
SWIDTH 709 0
DWIDTH 14 0
BBX 14 14 0 0
BITMAP
00B70000000000
00B70000000000
00B70000000000
00B70000000000
00B70000000000
00B70000000000
00B848C5000000
16DFC840000000
BAD80000000000
00B70000000000
00B80000000000
008B0000000000
002EA310000000
00029DEFFFFFFF
ENDCHAR
STARTCHAR Nacute
ENCODING 323
SWIDTH 936 0
DWIDTH 19 0
BBX 15 18 2 0
BITMAP
0000000019800000
00000018EA300000
0000009820000000
0000000000000000
BE20000000000B70
BED2000000000B70
B7AD100000000B70
B70BC10000000B70
B701BC1000000B70
B7001CB000000B70
B70001DA00000B70
B700002D90000B70
B7000002E9000B70
B70000003E800B70
B700000003E70B70
B7000000004E6B70
B70000000004FE70
B700000000005F70
ENDCHAR
STARTCHAR nacute
ENCODING 324
SWIDTH 933 0
DWIDTH 19 0
BBX 15 18 2 0
BITMAP
000000003A500000
00000029E9200000
000000C710000000
0000000000000000
B700049DEFD93000
B705DC620127E500
B9BC300000005E10
BF70000000000E50
B800000000000C70
B700000000000B70
B700000000000B70
B700000000000B70
B700000000000B70
B700000000000B70
B700000000000B70
B700000000000B70
B700000000000B70
B700000000000B70
ENDCHAR
STARTCHAR Ncommaaccent
ENCODING 325
SWIDTH 936 0
DWIDTH 19 0
BBX 15 18 2 -4
BITMAP
BE20000000000B70
BED2000000000B70
B7AD100000000B70
B70BC10000000B70
B701BC1000000B70
B7001CB000000B70
B70001DA00000B70
B700002D90000B70
B7000002E9000B70
B70000003E800B70
B700000003E70B70
B7000000004E6B70
B70000000004FE70
B700000000005F70
0000000000000000
0000003F20000000
0000005D00000000
0000007900000000
ENDCHAR
STARTCHAR ncommaaccent
ENCODING 326
SWIDTH 933 0
DWIDTH 19 0
BBX 15 18 2 -4
BITMAP
B700049DEFD93000
B705DC620127E500
B9BC300000005E10
BF70000000000E50
B800000000000C70
B700000000000B70
B700000000000B70
B700000000000B70
B700000000000B70
B700000000000B70
B700000000000B70
B700000000000B70
B700000000000B70
B700000000000B70
0000000000000000
0000004F10000000
0000006C00000000
0000008800000000
ENDCHAR
STARTCHAR Ncaron
ENCODING 327
SWIDTH 936 0
DWIDTH 19 0
BBX 15 18 2 0
BITMAP
0003A20004B00000
00004C83AA200000
0000007D40000000
0000000000000000
BE20000000000B70
BED2000000000B70
B7AD100000000B70
B70BC10000000B70
B701BC1000000B70
B7001CB000000B70
B70001DA00000B70
B700002D90000B70
B7000002E9000B70
B70000003E800B70
B700000003E70B70
B7000000004E6B70
B70000000004FE70
B700000000005F70
ENDCHAR
STARTCHAR ncaron
ENCODING 328
SWIDTH 933 0
DWIDTH 19 0
BBX 15 18 2 0
BITMAP
0006810006900000
00006D64C9100000
0000019C30000000
0000000000000000
B700049DEFD93000
B705DC620127E500
B9BC300000005E10
BF70000000000E50
B800000000000C70
B700000000000B70
B700000000000B70
B700000000000B70
B700000000000B70
B700000000000B70
B700000000000B70
B700000000000B70
B700000000000B70
B700000000000B70
ENDCHAR
STARTCHAR napostrophe
ENCODING 329
SWIDTH 1025 0
DWIDTH 21 0
BBX 19 14 0 0
BITMAP
6E00D50005ADFED82000
9A00D506DB520138E300
B600D8CB200000007D00
E200DE50000000001F30
0000D600000000000E50
0000D500000000000D50
0000D500000000000D50
0000D500000000000D50
0000D500000000000D50
0000D500000000000D50
0000D500000000000D50
0000D500000000000D50
0000D500000000000D50
0000D500000000000D50
ENDCHAR
STARTCHAR Eng
ENCODING 330
SWIDTH 936 0
DWIDTH 19 0
BBX 15 14 2 0
BITMAP
BE40000000000B70
BAD7000000000B70
B71B900000000B70
B7008C1000000B70
B70006D300000B70
B700003D50000B70
B7000001C8000B70
B700000009B10B70
B7000000007C2B70
B70000000004DD70
B700000000002F50
B700000000004F20
B70005941016E700
B700006BEFEB5000
ENDCHAR
STARTCHAR eng
ENCODING 331
SWIDTH 933 0
DWIDTH 19 0
BBX 15 14 2 0
BITMAP
B70005ADFFD93000
B717DB620127E500
BBDA200000005E10
BE40000000000E50
B700000000000C70
B700000000000B70
B700000000000B70
B700000000000B70
B700000000000B70
B700000000000B70
B700000000000D60
B700000000004F20
B70002A51026E800
B700004ADFEB5000
ENDCHAR
STARTCHAR Omacron
ENCODING 332
SWIDTH 983 0
DWIDTH 20 0
BBX 18 16 1 0
BITMAP
000000CFFFF8000000
000000000000000000
000038CDFEDB720000
002AD74101249E8000
02D80000000002CB00
0B9000000000001D70
3F10000000000006E0
8B00000000000001F3
A900000000000000E5
A900000000000000E5
8B00000000000001F3
4F10000000000006E0
0C9000000000001D70
02E80000000002CB00
002BD73101249E8000
000049CEFEDB720000
ENDCHAR
STARTCHAR omacron
ENCODING 333
SWIDTH 983 0
DWIDTH 20 0
BBX 18 16 1 0
BITMAP
000000CFFFF8000000
000000000000000000
000038CDFEDB720000
002AD74101249E8000
02D80000000002CB00
0B9000000000001D70
3F10000000000006E0
8B00000000000001F3
A900000000000000E5
A900000000000000E5
8B00000000000001F3
4F10000000000006E0
0C9000000000001D70
02E80000000002CB00
002BD73101249E8000
000049CEFEDB720000
ENDCHAR
STARTCHAR Obreve
ENCODING 334
SWIDTH 983 0
DWIDTH 20 0
BBX 18 17 1 0
BITMAP
000004D4116E100000
0000005CFEB3000000
000000000000000000
000038CDFEDB720000
002AD74101249E8000
02D80000000002CB00
0B9000000000001D70
3F10000000000006E0
8B00000000000001F3
A900000000000000E5
A900000000000000E5
8B00000000000001F3
4F10000000000006E0
0C9000000000001D70
02E80000000002CB00
002BD73101249E8000
000049CEFEDB720000
ENDCHAR
STARTCHAR obreve
ENCODING 335
SWIDTH 983 0
DWIDTH 20 0
BBX 18 17 1 0
BITMAP
000004D4116E100000
0000005CFEB3000000
000000000000000000
000038CDFEDB720000
002AD74101249E8000
02D80000000002CB00
0B9000000000001D70
3F10000000000006E0
8B00000000000001F3
A900000000000000E5
A900000000000000E5
8B00000000000001F3
4F10000000000006E0
0C9000000000001D70
02E80000000002CB00
002BD73101249E8000
000049CEFEDB720000
ENDCHAR
STARTCHAR Ohungarumlaut
ENCODING 336
SWIDTH 983 0
DWIDTH 20 0
BBX 18 18 1 0
BITMAP
00000001A305900000
0000002DB28E500000
0000009603B2000000
000000000000000000
000038CDFEDB720000
002AD74101249E8000
02D80000000002CB00
0B9000000000001D70
3F10000000000006E0
8B00000000000001F3
A900000000000000E5
A900000000000000E5
8B00000000000001F3
4F10000000000006E0
0C9000000000001D70
02E80000000002CB00
002BD73101249E8000
000049CEFEDB720000
ENDCHAR
STARTCHAR ohungarumlaut
ENCODING 337
SWIDTH 983 0
DWIDTH 20 0
BBX 18 18 1 0
BITMAP
00000001A305900000
0000002DB28E500000
0000009603B2000000
000000000000000000
000038CDFEDB720000
002AD74101249E8000
02D80000000002CB00
0B9000000000001D70
3F10000000000006E0
8B00000000000001F3
A900000000000000E5
A900000000000000E5
8B00000000000001F3
4F10000000000006E0
0C9000000000001D70
02E80000000002CB00
002BD73101249E8000
000049CEFEDB720000
ENDCHAR
STARTCHAR OE
ENCODING 338
SWIDTH 1338 0
DWIDTH 27 0
BBX 25 14 1 0
BITMAP
000038CDFFFFFFFFFFFFFFFF20
001AD84101135F400000000000
02D9100000001F400000000000
0BA0000000001F400000000000
3F10000000001F400000000000
8B00000000001F400000000000
A900000000001FFFFFFFFFF900
A900000000001F400000000000
8B00000000001F400000000000
4F10000000001F400000000000
0C90000000001F400000000000
02E8000000001F400000000000
002CD73100125F400000000000
000049CEFFFFFFFFFFFFFFFF40
ENDCHAR
STARTCHAR oe
ENCODING 339
SWIDTH 1688 0
DWIDTH 34 0
BBX 32 14 1 0
BITMAP
000038CDFEDB720000004ADFFDB61000
002AD74101249E90002CB521025AE500
02D80000000002CB03E5000000004E40
0B9000000000001D8D500000000005D0
3F10000000000006FC000000000000D5
8B00000000000001F700000000000098
A900000000000000EFFFFFFFFFFFFFFA
A900000000000000E700000000000000
8B00000000000001FA00000000000000
4F10000000000006FE10000000000000
0C9000000000001D8E90000000000000
02E80000000002CB04E9100000000000
002BD73101249E90002CE84100136980
000049CEFEDB7200000049CEFFEC9510
ENDCHAR
STARTCHAR Racute
ENCODING 340
SWIDTH 833 0
DWIDTH 17 0
BBX 14 18 2 0
BITMAP
00000007B00000
000006DC500000
00006A30000000
00000000000000
BFFFFFFFEB6000
B700000125CC10
B7000000000D70
B70000000009A0
B70000000009A0
B7000000000D60
B700000125BC00
BFFFFFFFFC7000
B70000008C1000
B70000000C9000
B700000002E500
B7000000006E20
B7000000000AC0
B70000000001D9
ENDCHAR
STARTCHAR racute
ENCODING 341
SWIDTH 609 0
DWIDTH 12 0
BBX 11 18 2 0
BITMAP
0000006B0000
00005DC50000
0005B4000000
000000000000
B70027CEFE30
B707D8310210
B8B900000000
BF6000000000
B90000000000
B70000000000
B70000000000
B70000000000
B70000000000
B70000000000
B70000000000
B70000000000
B70000000000
B70000000000
ENDCHAR
STARTCHAR Rcommaaccent
ENCODING 342
SWIDTH 833 0
DWIDTH 17 0
BBX 14 18 2 -4
BITMAP
BFFFFFFFEB6000
B700000125CC10
B7000000000D70
B70000000009A0
B70000000009A0
B7000000000D60
B700000125BC00
BFFFFFFFFC7000
B70000008C1000
B70000000C9000
B700000002E500
B7000000006E20
B7000000000AC0
B70000000001D9
00000000000000
000004F1000000
000006C0000000
00000880000000
ENDCHAR
STARTCHAR rcommaaccent
ENCODING 343
SWIDTH 609 0
DWIDTH 12 0
BBX 11 18 2 -4
BITMAP
B70027CEFE30
B707D8310210
B8B900000000
BF6000000000
B90000000000
B70000000000
B70000000000
B70000000000
B70000000000
B70000000000
B70000000000
B70000000000
B70000000000
B70000000000
000000000000
AA0000000000
C60000000000
E20000000000
ENDCHAR
STARTCHAR Rcaron
ENCODING 344
SWIDTH 833 0
DWIDTH 17 0
BBX 14 18 2 0
BITMAP
01B40002A30000
002BA38C400000
00005D70000000
00000000000000
BFFFFFFFEB6000
B700000125CC10
B7000000000D70
B70000000009A0
B70000000009A0
B7000000000D60
B700000125BC00
BFFFFFFFFC7000
B70000008C1000
B70000000C9000
B700000002E500
B7000000006E20
B7000000000AC0
B70000000001D9
ENDCHAR
STARTCHAR rcaron
ENCODING 345
SWIDTH 609 0
DWIDTH 12 0
BBX 11 18 2 0
BITMAP
0B40002A4000
02AB38C40000
0004C7000000
000000000000
B70027CEFE30
B707D8310210
B8B900000000
BF6000000000
B90000000000
B70000000000
B70000000000
B70000000000
B70000000000
B70000000000
B70000000000
B70000000000
B70000000000
B70000000000
ENDCHAR
STARTCHAR Sacute
ENCODING 346
SWIDTH 787 0
DWIDTH 16 0
BBX 14 18 1 0
BITMAP
000000005C0000
0000005CD60000
000004B4000000
00000000000000
0039CEFEDA7300
07E73101147C10
2F200000000000
5E000000000000
2F700000000000
04EC6200000000
0016BFD9510000
00000148CEA200
00000000029F50
000000000006F1
000000000002F3
000000000007E1
4B63210124AE40
037BDEFFDB7100
ENDCHAR
STARTCHAR sacute
ENCODING 347
SWIDTH 787 0
DWIDTH 16 0
BBX 14 18 1 0
BITMAP
000000005C0000
0000005CD60000
000004B4000000
00000000000000
0039CEFEDA7300
07E73101147C10
2F200000000000
5E000000000000
2F700000000000
04EC6200000000
0016BFD9510000
00000148CEA200
00000000029F50
000000000006F1
000000000002F3
000000000007E1
4B63210124AE40
037BDEFFDB7100
ENDCHAR
STARTCHAR Scircumflex
ENCODING 348
SWIDTH 787 0
DWIDTH 16 0
BBX 14 18 1 0
BITMAP
000004C8100000
00019A26C50000
000A4000195000
00000000000000
0039CEFEDA7300
07E73101147C10
2F200000000000
5E000000000000
2F700000000000
04EC6200000000
0016BFD9510000
00000148CEA200
00000000029F50
000000000006F1
000000000002F3
000000000007E1
4B63210124AE40
037BDEFFDB7100
ENDCHAR
STARTCHAR scircumflex
ENCODING 349
SWIDTH 787 0
DWIDTH 16 0
BBX 14 18 1 0
BITMAP
000004C8100000
00019A26C50000
000A4000195000
00000000000000
0039CEFEDA7300
07E73101147C10
2F200000000000
5E000000000000
2F700000000000
04EC6200000000
0016BFD9510000
00000148CEA200
00000000029F50
000000000006F1
000000000002F3
000000000007E1
4B63210124AE40
037BDEFFDB7100
ENDCHAR
STARTCHAR Scedilla
ENCODING 350
SWIDTH 787 0
DWIDTH 16 0
BBX 14 18 1 -4
BITMAP
0039CEFEDA7300
07E73101147C10
2F200000000000
5E000000000000
2F700000000000
04EC6200000000
0016CFD9510000
00000158DEA200
00000000029F50
000000000006F1
000000000002F3
000000000007E1
4B63210124AE40
038BDFFFEB7100
000000B2000000
000000EE900000
00000003F00000
00006FFE800000
ENDCHAR
STARTCHAR scedilla
ENCODING 351
SWIDTH 787 0
DWIDTH 16 0
BBX 14 18 1 -4
BITMAP
0039CEFEDA7300
07E73101147C10
2F200000000000
5E000000000000
2F700000000000
04EC6200000000
0016CFD9510000
00000158DEA200
00000000029F50
000000000006F1
000000000002F3
000000000007E1
4B63210124AE40
038BDFFFEB7100
000000B2000000
000000EE900000
00000003F00000
00006FFE800000
ENDCHAR
STARTCHAR Scaron
ENCODING 352
SWIDTH 787 0
DWIDTH 16 0
BBX 14 18 1 0
BITMAP
000B5000195000
0001AB37D50000
000004C8100000
00000000000000
0039CEFEDA7300
07E73101147C10
2F200000000000
5E000000000000
2F700000000000
04EC6200000000
0016BFD9510000
00000148CEA200
00000000029F50
000000000006F1
000000000002F3
000000000007E1
4B63210124AE40
037BDEFFDB7100
ENDCHAR
STARTCHAR scaron
ENCODING 353
SWIDTH 787 0
DWIDTH 16 0
BBX 14 18 1 0
BITMAP
000B5000195000
0001AB37D50000
000004C8100000
00000000000000
0039CEFEDA7300
07E73101147C10
2F200000000000
5E000000000000
2F700000000000
04EC6200000000
0016BFD9510000
00000148CEA200
00000000029F50
000000000006F1
000000000002F3
000000000007E1
4B63210124AE40
037BDEFFDB7100
ENDCHAR
STARTCHAR Tcommaaccent
ENCODING 354
SWIDTH 708 0
DWIDTH 14 0
BBX 14 18 0 -4
BITMAP
9FFFFFFFFFFFFC
0000008B000000
0000008B000000
0000008B000000
0000008B000000
0000008B000000
0000008B000000
0000008B000000
0000008B000000
0000008B000000
0000008B000000
0000008B000000
0000008B000000
0000008B000000
00000000000000
0000008C000000
000000A8000000
000000C4000000
ENDCHAR
STARTCHAR tcommaaccent
ENCODING 355
SWIDTH 708 0
DWIDTH 14 0
BBX 14 18 0 -4
BITMAP
9FFFFFFFFFFFFC
0000008B000000
0000008B000000
0000008B000000
0000008B000000
0000008B000000
0000008B000000
0000008B000000
0000008B000000
0000008B000000
0000008B000000
0000008B000000
0000008B000000
0000008B000000
00000000000000
0000008C000000
000000A8000000
000000C4000000
ENDCHAR
STARTCHAR Tcaron
ENCODING 356
SWIDTH 708 0
DWIDTH 14 0
BBX 14 18 0 0
BITMAP
00078100069000
00007D54C81000
000001AB200000
00000000000000
9FFFFFFFFFFFFC
0000008B000000
0000008B000000
0000008B000000
0000008B000000
0000008B000000
0000008B000000
0000008B000000
0000008B000000
0000008B000000
0000008B000000
0000008B000000
0000008B000000
0000008B000000
ENDCHAR
STARTCHAR tcaron
ENCODING 357
SWIDTH 708 0
DWIDTH 14 0
BBX 14 18 0 0
BITMAP
00078100069000
00006D64C81000
000001AB200000
00000000000000
9FFFFFFFFFFFFC
0000008B000000
0000008B000000
0000008B000000
0000008B000000
0000008B000000
0000008B000000
0000008B000000
0000008B000000
0000008B000000
0000008B000000
0000008B000000
0000008B000000
0000008B000000
ENDCHAR
STARTCHAR Tbar
ENCODING 358
SWIDTH 708 0
DWIDTH 14 0
BBX 14 14 0 0
BITMAP
9FFFFFFFFFFFFC
0000008B000000
0000008B000000
0000008B000000
0000008B000000
03FFFFFFFFFF60
0000008B000000
0000008B000000
0000008B000000
0000008B000000
0000008B000000
0000008B000000
0000008B000000
0000008B000000
ENDCHAR
STARTCHAR tbar
ENCODING 359
SWIDTH 708 0
DWIDTH 14 0
BBX 14 14 0 0
BITMAP
9FFFFFFFFFFFFC
0000008B000000
0000008B000000
0000008B000000
0000008B000000
03FFFFFFFFFF60
0000008B000000
0000008B000000
0000008B000000
0000008B000000
0000008B000000
0000008B000000
0000008B000000
0000008B000000
ENDCHAR
STARTCHAR Utilde
ENCODING 360
SWIDTH 891 0
DWIDTH 18 0
BBX 14 17 2 0
BITMAP
0001BEB41B4000
0006916CEA0000
00000000000000
D500000000008A
D500000000008A
D500000000008A
D500000000008A
D500000000008A
D500000000008A
D500000000008A
D500000000008A
D500000000008A
D600000000008A
A80000000000B8
4F4000000006E2
06EA410025BE40
0028CEFFEB7100
ENDCHAR
STARTCHAR utilde
ENCODING 361
SWIDTH 931 0
DWIDTH 19 0
BBX 15 17 2 0
BITMAP
00007EC716A00000
0001E13AED300000
0000000000000000
C700000000000D50
C700000000000D50
C700000000000D50
C700000000000D50
C700000000000D50
C700000000000D50
C700000000000D50
C700000000000D50
C700000000000D50
C700000000000D50
A900000000008F50
4E100000004DAE50
09C520137DB40D50
005BEFEC83000D50
ENDCHAR
STARTCHAR Umacron
ENCODING 362
SWIDTH 891 0
DWIDTH 18 0
BBX 14 16 2 0
BITMAP
0000CFFFF90000
00000000000000
D500000000008A
D500000000008A
D500000000008A
D500000000008A
D500000000008A
D500000000008A
D500000000008A
D500000000008A
D500000000008A
D600000000008A
A80000000000B8
4F4000000006E2
06EA410025BE40
0028CEFFEB7100
ENDCHAR
STARTCHAR umacron
ENCODING 363
SWIDTH 931 0
DWIDTH 19 0
BBX 15 16 2 0
BITMAP
00006FFFFE000000
0000000000000000
C700000000000D50
C700000000000D50
C700000000000D50
C700000000000D50
C700000000000D50
C700000000000D50
C700000000000D50
C700000000000D50
C700000000000D50
C700000000000D50
A900000000008F50
4E100000004DAE50
09C520137DB40D50
005BEFEC83000D50
ENDCHAR
STARTCHAR Ubreve
ENCODING 364
SWIDTH 891 0
DWIDTH 18 0
BBX 14 17 2 0
BITMAP
0003E4116E1000
00004CFEB30000
00000000000000
D500000000008A
D500000000008A
D500000000008A
D500000000008A
D500000000008A
D500000000008A
D500000000008A
D500000000008A
D500000000008A
D600000000008A
A80000000000B8
4F4000000006E2
06EA410025BE40
0028CEFFEB7100
ENDCHAR
STARTCHAR ubreve
ENCODING 365
SWIDTH 931 0
DWIDTH 19 0
BBX 15 17 2 0
BITMAP
0000D8103C600000
00002AEFD6000000
0000000000000000
C700000000000D50
C700000000000D50
C700000000000D50
C700000000000D50
C700000000000D50
C700000000000D50
C700000000000D50
C700000000000D50
C700000000000D50
C700000000000D50
A900000000008F50
4E100000004DAE50
09C520137DB40D50
005BEFEC83000D50
ENDCHAR
STARTCHAR Uring
ENCODING 366
SWIDTH 891 0
DWIDTH 18 0
BBX 14 19 2 0
BITMAP
00001AEE900000
00008911C50000
00008911B50000
00001AEE900000
00000000000000
D500000000008A
D500000000008A
D500000000008A
D500000000008A
D500000000008A
D500000000008A
D500000000008A
D500000000008A
D500000000008A
D600000000008A
A80000000000B8
4F4000000006E2
06EA410025BE40
0028CEFFEB7100
ENDCHAR
STARTCHAR uring
ENCODING 367
SWIDTH 931 0
DWIDTH 19 0
BBX 15 19 2 0
BITMAP
000007DEB2000000
00003D207B000000
00003D207B000000
000007DEB2000000
0000000000000000
C700000000000D50
C700000000000D50
C700000000000D50
C700000000000D50
C700000000000D50
C700000000000D50
C700000000000D50
C700000000000D50
C700000000000D50
C700000000000D50
A900000000008F50
4E100000004DAE50
09C520137DB40D50
005BEFEC83000D50
ENDCHAR
STARTCHAR Uhungarumlaut
ENCODING 368
SWIDTH 891 0
DWIDTH 18 0
BBX 14 18 2 0
BITMAP
000001A404A000
00002CB27E6000
00009702B20000
00000000000000
D500000000008A
D500000000008A
D500000000008A
D500000000008A
D500000000008A
D500000000008A
D500000000008A
D500000000008A
D500000000008A
D600000000008A
A80000000000B8
4F4000000006E2
06EA410025BE40
0028CEFFEB7100
ENDCHAR
STARTCHAR uhungarumlaut
ENCODING 369
SWIDTH 931 0
DWIDTH 19 0
BBX 15 18 2 0
BITMAP
0000005901B20000
000008E53DA10000
00004A10A5000000
0000000000000000
C700000000000D50
C700000000000D50
C700000000000D50
C700000000000D50
C700000000000D50
C700000000000D50
C700000000000D50
C700000000000D50
C700000000000D50
C700000000000D50
A900000000008F50
4E100000004DAE50
09C520137DB40D50
005BEFEC83000D50
ENDCHAR
STARTCHAR Uogonek
ENCODING 370
SWIDTH 891 0
DWIDTH 18 0
BBX 14 17 2 -3
BITMAP
D500000000008A
D500000000008A
D500000000008A
D500000000008A
D500000000008A
D500000000008A
D500000000008A
D500000000008A
D500000000008A
D600000000008A
B80000000000B8
4F4000000006F2
07EA410025BE50
0028CEFFEB7100
000006A1000000
00000D60000000
000007EFF50000
ENDCHAR
STARTCHAR uogonek
ENCODING 371
SWIDTH 931 0
DWIDTH 19 0
BBX 16 17 2 -3
BITMAP
C700000000000D50
C700000000000D50
C700000000000D50
C700000000000D50
C700000000000D50
C700000000000D50
C700000000000D50
C700000000000D50
C700000000000D50
C700000000000D50
A900000000008F50
4E100000004DAE50
09C520137DB40D50
005BEFEC83000D50
000000000001A500
000000000008A000
000000000003DFFA
ENDCHAR
STARTCHAR Wcircumflex
ENCODING 372
SWIDTH 1266 0
DWIDTH 25 0
BBX 25 18 0 0
BITMAP
000000000005C7000000000000
0000000002A917C40000000000
000000000B30002A3000000000
00000000000000000000000000
1F4000000005FA000000000E60
0AA00000000BCF100000005E10
04F10000001F3D60000000B900
00D60000007D08C0000002F300
008C000000C702F2000007D000
002F300003F200C800000D7000
000B900008B0006D00004F1000
0005E0000E50001F4000AA0000
0001E5004E10000A9001E50000
00009B00A9000005E006E00000
00003F21E4000000E50C800000
00000C76D00000009B2F200000
000007DB800000003F9B000000
000001FF200000000CF6000000
ENDCHAR
STARTCHAR wcircumflex
ENCODING 373
SWIDTH 1266 0
DWIDTH 25 0
BBX 25 18 0 0
BITMAP
000000000005C7000000000000
0000000002A917C40000000000
000000000B30002A3000000000
00000000000000000000000000
1F4000000005FA000000000E60
0AA00000000BCF100000005E10
04F10000001F3D60000000B900
00D60000007D08C0000002F300
008C000000C702F2000007D000
002F300003F200C800000D7000
000B900008B0006D00004F1000
0005E0000E50001F4000AA0000
0001E5004E10000A9001E50000
00009B00A9000005E006E00000
00003F21E4000000E50C800000
00000C76D00000009B2F200000
000007DB800000003F9B000000
000001FF200000000CF6000000
ENDCHAR
STARTCHAR Ycircumflex
ENCODING 374
SWIDTH 763 0
DWIDTH 15 0
BBX 15 18 0 0
BITMAP
0000005C70000000
00002A917C400000
0000B30002A30000
0000000000000000
1D80000000005E30
02E500000002E600
005E2000001C9000
0008D100009C0000
0000BA0006E20000
00001D703E400000
000003E5D7000000
0000006FA0000000
0000000F40000000
0000000F40000000
0000000F40000000
0000000F40000000
0000000F40000000
0000000F40000000
ENDCHAR
STARTCHAR ycircumflex
ENCODING 375
SWIDTH 911 0
DWIDTH 18 0
BBX 15 18 1 0
BITMAP
0000003B91000000
000018B25C600000
0000950001860000
0000000000000000
3F000000000004E0
3F000000000004E0
3F000000000004E0
3F100000000004E0
1F300000000008E0
0C70000000005FE0
05E200000007E7E0
008E731026CB24E0
00039DFFD94004E0
00000000000006D0
0000000000001D90
000000000001BD10
3C842100249EC200
048BDEFFEC940000
ENDCHAR
STARTCHAR Ydieresis
ENCODING 376
SWIDTH 763 0
DWIDTH 15 0
BBX 15 16 0 0
BITMAP
00001F602F500000
0000000000000000
1D80000000005E30
02E500000002E600
005E2000001C9000
0008D100009C0000
0000BA0006E20000
00001D703E400000
000003E5D7000000
0000006FA0000000
0000000F40000000
0000000F40000000
0000000F40000000
0000000F40000000
0000000F40000000
0000000F40000000
ENDCHAR
STARTCHAR Zacute
ENCODING 377
SWIDTH 728 0
DWIDTH 15 0
BBX 13 18 1 0
BITMAP
00000001890000
0000017EA40000
00000992000000
00000000000000
4FFFFFFFFFFE10
0000000004F500
000000002E8000
00000001CA0000
0000000AD10000
0000007E200000
000004F4000000
00002E70000000
0001CA00000000
000AC100000000
007E2000000000
04F40000000000
2E700000000000
8FFFFFFFFFFF40
ENDCHAR
STARTCHAR zacute
ENCODING 378
SWIDTH 728 0
DWIDTH 15 0
BBX 13 18 1 0
BITMAP
00000001890000
0000017EA40000
00000992000000
00000000000000
4FFFFFFFFFFE10
0000000004F500
000000002E8000
00000001CA0000
0000000AD10000
0000007E200000
000004F4000000
00002E70000000
0001CA00000000
000AC100000000
007E2000000000
04F40000000000
2E700000000000
8FFFFFFFFFFF40
ENDCHAR
STARTCHAR Zdotaccent
ENCODING 379
SWIDTH 728 0
DWIDTH 15 0
BBX 13 17 1 0
BITMAP
000005F3000000
000005F3000000
00000000000000
4FFFFFFFFFFE10
0000000004F500
000000002E8000
00000001CA0000
0000000AD10000
0000007E200000
000004F4000000
00002E70000000
0001CA00000000
000AC100000000
007E2000000000
04F40000000000
2E700000000000
8FFFFFFFFFFF40
ENDCHAR
STARTCHAR zdotaccent
ENCODING 380
SWIDTH 728 0
DWIDTH 15 0
BBX 13 17 1 0
BITMAP
000005F3000000
000005F3000000
00000000000000
4FFFFFFFFFFE10
0000000004F500
000000002E8000
00000001CA0000
0000000AD10000
0000007E200000
000004F4000000
00002E70000000
0001CA00000000
000AC100000000
007E2000000000
04F40000000000
2E700000000000
8FFFFFFFFFFF40
ENDCHAR
STARTCHAR Zcaron
ENCODING 381
SWIDTH 728 0
DWIDTH 15 0
BBX 13 18 1 0
BITMAP
002B20004B1000
0003C83AB20000
000007D5000000
00000000000000
4FFFFFFFFFFE10
0000000004F500
000000002E8000
00000001CA0000
0000000AD10000
0000007E200000
000004F4000000
00002E70000000
0001CA00000000
000AC100000000
007E2000000000
04F40000000000
2E700000000000
8FFFFFFFFFFF40
ENDCHAR
STARTCHAR zcaron
ENCODING 382
SWIDTH 728 0
DWIDTH 15 0
BBX 13 18 1 0
BITMAP
002B20004B1000
0003C83AB20000
000007D5000000
00000000000000
4FFFFFFFFFFE10
0000000004F500
000000002E8000
00000001CA0000
0000000AD10000
0000007E200000
000004F4000000
00002E70000000
0001CA00000000
000AC100000000
007E2000000000
04F40000000000
2E700000000000
8FFFFFFFFFFF40
ENDCHAR
STARTCHAR florin
ENCODING 402
SWIDTH 835 0
DWIDTH 17 0
BBX 17 15 0 -1
BITMAP
00000000003BEFC500
0000000002E7102920
000000000AA0000000
000000000E40000000
000000004F10000000
00000BFFFFFFF00000
00000000D600000000
00000002F200000000
00000006D000000000
0000000A9000000000
0000000E4000000000
0000004E0000000000
000000B90000000000
572029D10000000000
18DFD9200000000000
ENDCHAR
STARTCHAR AEacute
ENCODING 508
SWIDTH 1172 0
DWIDTH 23 0
BBX 22 18 0 0
BITMAP
00000000000000005C1000
000000000000004CD60000
00000000000004B5000000
0000000000000000000000
000000004FFFFFFFFFFFFC
00000001D66E0000000000
00000008B06E0000000000
0000003E206E0000000000
000000C7006E0000000000
000007D0006E0000000000
00002F40006FFFFFFFFFF4
0000C900006E0000000000
0007E100006E0000000000
002EFFFFFFFE0000000000
00BA0000006E0000000000
06E20000006E0000000000
1E700000006E0000000000
AD000000006FFFFFFFFFFE
ENDCHAR
STARTCHAR aeacute
ENCODING 509
SWIDTH 1551 0
DWIDTH 31 0
BBX 29 18 1 0
BITMAP
00000000000000005C000000000000
000000000000004CD6000000000000
00000000000004B400000000000000
000000000000000000000000000000
0047BDEFEDA61000038CEFEB820000
07B74210125AE401AD6310149E7000
0000000000004E3C8000000002D800
0000000000000BE900000000002E30
00000000000009E100000000000990
000001468ACDEFB0000000000005C0
0017CFCA75321AFFFFFFFFFFFFFFE0
06EB5100000008A000000000000000
4F500000000006D000000000000000
AA000000000002F400000000000000
B8000000000002EC10000000000000
8D10000000018E7AC2000000000000
1CD7310236BD81008E952101258A00
006BEFEEC9500000027BDEFECA6200
ENDCHAR
STARTCHAR Oslashacute
ENCODING 510
SWIDTH 983 0
DWIDTH 20 0
BBX 18 20 1 -2
BITMAP
00000000004C100000
000000004CD7100000
00000002C50001E400
00000000000008A000
000038CDFEDB8E1000
002AD7410125FD8000
02D80000000981AA00
0B900000005C001C70
3F10000001E30005D0
8B0000000B700001F3
A90000006C000000E5
99000002E2000000E5
8B00000C60000001F3
4F10008B00000006E0
0C9003E10000001D70
02E81D50000002CB00
002BED3101249E8000
0005D8CEFEDB720000
001D40000000000000
008B00000000000000
ENDCHAR
STARTCHAR oslashacute
ENCODING 511
SWIDTH 983 0
DWIDTH 20 0
BBX 18 20 1 -2
BITMAP
00000000004C100000
000000004CD7100000
00000002C50001E400
00000000000008A000
000038CDFEDB8E1000
002AD7410125FD8000
02D80000000981AA00
0B900000005C001C70
3F10000001E30005D0
8B0000000B700001F3
A90000006C000000E5
99000002E2000000E5
8B00000C60000001F3
4F10008B00000006E0
0C9003E10000001D70
02E81D50000002CB00
002BED3101249E8000
0005D8CEFEDB720000
001D40000000000000
008B00000000000000
ENDCHAR
STARTCHAR dotlessj
ENCODING 567
SWIDTH 590 0
DWIDTH 12 0
BBX 10 14 0 0
BITMAP
0000000099
0000000099
0000000099
0000000099
0000000099
0000000099
0000000099
0000000099
0000000099
0000000099
00000000B7
00000004F3
C631027E70
38CEFEA400
ENDCHAR
STARTCHAR circumflex
ENCODING 710
SWIDTH 527 0
DWIDTH 11 0
BBX 8 3 1 11
BITMAP
0018C400
04C62AA1
4910004B
ENDCHAR
STARTCHAR caron
ENCODING 711
SWIDTH 527 0
DWIDTH 11 0
BBX 8 3 1 11
BITMAP
4A20005B
05D73BA1
0018C400
ENDCHAR
STARTCHAR breve
ENCODING 728
SWIDTH 527 0
DWIDTH 11 0
BBX 7 2 2 11
BITMAP
D8103C60
2AEFD600
ENDCHAR
STARTCHAR dotaccent
ENCODING 729
SWIDTH 527 0
DWIDTH 11 0
BBX 2 2 4 11
BITMAP
7F
7F
ENDCHAR
STARTCHAR ring
ENCODING 730
SWIDTH 527 0
DWIDTH 11 0
BBX 6 4 2 11
BITMAP
07DEB2
3D207B
3D207B
07DEB2
ENDCHAR
STARTCHAR ogonek
ENCODING 731
SWIDTH 527 0
DWIDTH 11 0
BBX 5 3 3 -3
BITMAP
294000
D50000
8EFF50
ENDCHAR
STARTCHAR tilde
ENCODING 732
SWIDTH 527 0
DWIDTH 11 0
BBX 8 2 1 11
BITMAP
07EC6169
1D14AED2
ENDCHAR
STARTCHAR hungarumlaut
ENCODING 733
SWIDTH 527 0
DWIDTH 11 0
BBX 8 3 2 11
BITMAP
005901B2
08E53DA1
4A10A500
ENDCHAR
STARTCHAR commaaccent
ENCODING 806
SWIDTH 527 0
DWIDTH 11 0
BBX 3 3 4 -4
BITMAP
5F10
7B00
9700
ENDCHAR
STARTCHAR mu
ENCODING 956
SWIDTH 705 0
DWIDTH 14 0
BBX 13 13 0 -4
BITMAP
000D5000001F20
001F2000004E00
004E0000007B00
007B000000B800
00A8000000E500
00D5000003F200
01F800002DF000
04EC6126C4F000
07B2BED810E400
0A800000000000
0D500000000000
1F300000000000
3F000000000000
ENDCHAR
STARTCHAR Wgrave
ENCODING 7808
SWIDTH 1266 0
DWIDTH 25 0
BBX 25 18 0 0
BITMAP
00000000089100000000000000
0000000003AE81000000000000
0000000000028A000000000000
00000000000000000000000000
1F4000000005FA000000000E60
0AA00000000BCF100000005E10
04F10000001F3D60000000B900
00D60000007D08C0000002F300
008C000000C702F2000007D000
002F300003F200C800000D7000
000B900008B0006D00004F1000
0005E0000E50001F4000AA0000
0001E5004E10000A9001E50000
00009B00A9000005E006E00000
00003F21E4000000E50C800000
00000C76D00000009B2F200000
000007DB800000003F9B000000
000001FF200000000CF6000000
ENDCHAR
STARTCHAR wgrave
ENCODING 7809
SWIDTH 1266 0
DWIDTH 25 0
BBX 25 18 0 0
BITMAP
00000000089100000000000000
0000000003AE81000000000000
0000000000028A000000000000
00000000000000000000000000
1F4000000005FA000000000E60
0AA00000000BCF100000005E10
04F10000001F3D60000000B900
00D60000007D08C0000002F300
008C000000C702F2000007D000
002F300003F200C800000D7000
000B900008B0006D00004F1000
0005E0000E50001F4000AA0000
0001E5004E10000A9001E50000
00009B00A9000005E006E00000
00003F21E4000000E50C800000
00000C76D00000009B2F200000
000007DB800000003F9B000000
000001FF200000000CF6000000
ENDCHAR
STARTCHAR Wacute
ENCODING 7810
SWIDTH 1266 0
DWIDTH 25 0
BBX 25 18 0 0
BITMAP
000000000000006B0000000000
0000000000005DC50000000000
000000000006A4000000000000
00000000000000000000000000
1F4000000005FA000000000E60
0AA00000000BCF100000005E10
04F10000001F3D60000000B900
00D60000007D08C0000002F300
008C000000C702F2000007D000
002F300003F200C800000D7000
000B900008B0006D00004F1000
0005E0000E50001F4000AA0000
0001E5004E10000A9001E50000
00009B00A9000005E006E00000
00003F21E4000000E50C800000
00000C76D00000009B2F200000
000007DB800000003F9B000000
000001FF200000000CF6000000
ENDCHAR
STARTCHAR wacute
ENCODING 7811
SWIDTH 1266 0
DWIDTH 25 0
BBX 25 18 0 0
BITMAP
000000000000006B0000000000
0000000000005DC50000000000
000000000006A4000000000000
00000000000000000000000000
1F4000000005FA000000000E60
0AA00000000BCF100000005E10
04F10000001F3D60000000B900
00D60000007D08C0000002F300
008C000000C702F2000007D000
002F300003F200C800000D7000
000B900008B0006D00004F1000
0005E0000E50001F4000AA0000
0001E5004E10000A9001E50000
00009B00A9000005E006E00000
00003F21E4000000E50C800000
00000C76D00000009B2F200000
000007DB800000003F9B000000
000001FF200000000CF6000000
ENDCHAR
STARTCHAR Wdieresis
ENCODING 7812
SWIDTH 1266 0
DWIDTH 25 0
BBX 25 16 0 0
BITMAP
0000000001F602F50000000000
00000000000000000000000000
1F4000000005FA000000000E60
0AA00000000BCF100000005E10
04F10000001F3D60000000B900
00D60000007D08C0000002F300
008C000000C702F2000007D000
002F300003F200C800000D7000
000B900008B0006D00004F1000
0005E0000E50001F4000AA0000
0001E5004E10000A9001E50000
00009B00A9000005E006E00000
00003F21E4000000E50C800000
00000C76D00000009B2F200000
000007DB800000003F9B000000
000001FF200000000CF6000000
ENDCHAR
STARTCHAR wdieresis
ENCODING 7813
SWIDTH 1266 0
DWIDTH 25 0
BBX 25 16 0 0
BITMAP
0000000001F602F50000000000
00000000000000000000000000
1F4000000005FA000000000E60
0AA00000000BCF100000005E10
04F10000001F3D60000000B900
00D60000007D08C0000002F300
008C000000C702F2000007D000
002F300003F200C800000D7000
000B900008B0006D00004F1000
0005E0000E50001F4000AA0000
0001E5004E10000A9001E50000
00009B00A9000005E006E00000
00003F21E4000000E50C800000
00000C76D00000009B2F200000
000007DB800000003F9B000000
000001FF200000000CF6000000
ENDCHAR
STARTCHAR Ygrave
ENCODING 7922
SWIDTH 763 0
DWIDTH 15 0
BBX 15 18 0 0
BITMAP
0000891000000000
00003AE810000000
00000028A0000000
0000000000000000
1D80000000005E30
02E500000002E600
005E2000001C9000
0008D100009C0000
0000BA0006E20000
00001D703E400000
000003E5D7000000
0000006FA0000000
0000000F40000000
0000000F40000000
0000000F40000000
0000000F40000000
0000000F40000000
0000000F40000000
ENDCHAR
STARTCHAR ygrave
ENCODING 7923
SWIDTH 911 0
DWIDTH 18 0
BBX 15 18 1 0
BITMAP
00005A3000000000
000029EA20000000
00000017C0000000
0000000000000000
3F000000000004E0
3F000000000004E0
3F000000000004E0
3F100000000004E0
1F300000000008E0
0C70000000005FE0
05E200000007E7E0
008E731026CB24E0
00039DFFD94004E0
00000000000006D0
0000000000001D90
000000000001BD10
3C842100249EC200
048BDEFFEC940000
ENDCHAR
STARTCHAR endash
ENCODING 8211
SWIDTH 419 0
DWIDTH 8 0
BBX 8 1 0 6
BITMAP
9FFFFFFF
ENDCHAR
STARTCHAR emdash
ENCODING 8212
SWIDTH 1000 0
DWIDTH 20 0
BBX 20 1 0 6
BITMAP
FFFFFFFFFFFFFFFFFFFF
ENDCHAR
STARTCHAR quoteleft
ENCODING 8216
SWIDTH 163 0
DWIDTH 3 0
BBX 3 4 0 10
BITMAP
0790
0B60
0F40
4F10
ENDCHAR
STARTCHAR quoteright
ENCODING 8217
SWIDTH 163 0
DWIDTH 3 0
BBX 3 4 0 10
BITMAP
0C80
0F40
2E00
5B00
ENDCHAR
STARTCHAR quotesinglbase
ENCODING 8218
SWIDTH 163 0
DWIDTH 3 0
BBX 3 4 0 -2
BITMAP
0C80
0F40
2E00
5B00
ENDCHAR
STARTCHAR quotedblleft
ENCODING 8220
SWIDTH 303 0
DWIDTH 6 0
BBX 6 4 0 10
BITMAP
0790A6
0B60E3
0F43F1
4F17D0
ENDCHAR
STARTCHAR quotedblright
ENCODING 8221
SWIDTH 303 0
DWIDTH 6 0
BBX 6 4 0 10
BITMAP
0C80F5
0F43F1
2E05C0
5B0880
ENDCHAR
STARTCHAR quotedblbase
ENCODING 8222
SWIDTH 303 0
DWIDTH 6 0
BBX 6 4 0 -2
BITMAP
0C80F5
0F43F1
2E05C0
5B0880
ENDCHAR
STARTCHAR dagger
ENCODING 8224
SWIDTH 500 0
DWIDTH 10 0
BBX 8 14 1 0
BITMAP
00099000
00099000
00099000
00099000
3FFFFFF3
00099000
00099000
00099000
00099000
00099000
00099000
00099000
00099000
00099000
ENDCHAR
STARTCHAR daggerdbl
ENCODING 8225
SWIDTH 500 0
DWIDTH 10 0
BBX 8 14 1 0
BITMAP
00099000
00099000
00099000
00099000
3FFFFFF3
00099000
00099000
00099000
3FFFFFF3
00099000
00099000
00099000
00099000
00099000
ENDCHAR
STARTCHAR bullet
ENCODING 8226
SWIDTH 352 0
DWIDTH 7 0
BBX 5 4 1 5
BITMAP
09EA00
4FFF50
4FFF50
0AEA00
ENDCHAR
STARTCHAR ellipsis
ENCODING 8230
SWIDTH 555 0
DWIDTH 11 0
BBX 10 2 1 0
BITMAP
FB04F609F1
FB04F609F1
ENDCHAR
STARTCHAR perthousand
ENCODING 8240
SWIDTH 1401 0
DWIDTH 28 0
BBX 26 14 1 0
BITMAP
04BED91000003E300000000000
4E5129D10001D6000000000000
D60000C7000A90000000000000
F3000099007C00000000000000
D60000C704E200000000000000
4E5129D11D5000000000000000
04BED910B80000000000000000
00000008C019DEB400019DEB40
0000004E21D9215E501D9215E5
000002E406C00005D06C00006D
00000C7008900002F08900003F
00009B0006C00005D06C00006D
0005D10001D9215E501D9215E5
002E30000019DEC400019DEC40
ENDCHAR
STARTCHAR guilsinglleft
ENCODING 8249
SWIDTH 257 0
DWIDTH 5 0
BBX 5 7 0 3
BITMAP
001B20
00BA00
0AC100
3F2000
0AC100
00BA00
001B20
ENDCHAR
STARTCHAR guilsinglright
ENCODING 8250
SWIDTH 257 0
DWIDTH 5 0
BBX 5 7 0 3
BITMAP
1B2000
07D200
009D10
000E60
009D10
07D200
1B2000
ENDCHAR
STARTCHAR fraction
ENCODING 8260
SWIDTH 200 0
DWIDTH 4 0
BBX 12 14 -4 0
BITMAP
0000000000A9
0000000007C1
000000003E20
00000001D500
0000000B9000
0000008C0000
000004E20000
00002E400000
0000C8000000
0008B0000000
005E10000000
02E400000000
1C7000000000
9B0000000000
ENDCHAR
STARTCHAR Euro
ENCODING 8364
SWIDTH 833 0
DWIDTH 17 0
BBX 16 14 0 0
BITMAP
0000005ADFEC8100
00002CD620137C60
0001D90000000072
0009B00000000000
001F300000000000
4FFFFFFFFFFC0000
007C000000000000
007C000000000000
4FFFFFFFFFD00000
001F200000000000
000AA00000000000
0002E80000000072
00002DC621137C60
0000005ADFEC7100
ENDCHAR
STARTCHAR trademark
ENCODING 8482
SWIDTH 773 0
DWIDTH 15 0
BBX 14 6 0 8
BITMAP
6FFFF5BA0000D7
007600BC2006C7
007600B5900B67
007600B2A25667
007600B239B067
007600B20A6067
ENDCHAR
STARTCHAR partialdiff
ENCODING 8706
SWIDTH 790 0
DWIDTH 16 0
BBX 14 14 1 0
BITMAP
00005BEFEB6000
0006941025CC10
00000000000AB0
000000000001F3
000000000000C7
0016BEFEC710A8
03DA520149E7A8
2E600000003CF7
8B0000000002F4
B70000000006E0
B8000000001D70
6E20000001CB00
09E731137E9000
004AEFED930000
ENDCHAR
STARTCHAR minus
ENCODING 8722
SWIDTH 634 0
DWIDTH 13 0
BBX 10 1 1 6
BITMAP
5FFFFFFFFF
ENDCHAR
STARTCHAR uni2215
ENCODING 8725
SWIDTH 200 0
DWIDTH 4 0
BBX 12 14 -4 0
BITMAP
0000000000A9
0000000007C1
000000003E20
00000001D500
0000000B9000
0000008C0000
000004E20000
00002E400000
0000C8000000
0008B0000000
005E10000000
02E400000000
1C7000000000
9B0000000000
ENDCHAR
STARTCHAR approxequal
ENCODING 8776
SWIDTH 634 0
DWIDTH 13 0
BBX 11 5 1 4
BITMAP
19EEB7312830
661148CEE700
000000000000
19EEB7312830
661148CEE700
ENDCHAR
STARTCHAR notequal
ENCODING 8800
SWIDTH 634 0
DWIDTH 13 0
BBX 10 11 1 1
BITMAP
000000A700
000001F200
000005C000
5FFFFFFFFF
00001F2000
00005D0000
0000990000
5FFFFFFFFF
0004D00000
0009900000
000E400000
ENDCHAR
STARTCHAR lessequal
ENCODING 8804
SWIDTH 634 0
DWIDTH 13 0
BBX 10 11 1 1
BITMAP
000000005C
0000028DA3
0004AE8200
16CC610000
7F80000000
16CC600000
0004AE8200
0000028DA3
000000005C
0000000000
5FFFFFFFFF
ENDCHAR
STARTCHAR greaterequal
ENCODING 8805
SWIDTH 634 0
DWIDTH 13 0
BBX 11 11 1 1
BITMAP
5A3000000000
06CC61000000
0003AE820000
0000028EB400
00000001BF30
0000028EB400
0003AE820000
05CC61000000
5A3000000000
000000000000
5FFFFFFFFF00
ENDCHAR
STARTCHAR fi
ENCODING 64257
SWIDTH 1104 0
DWIDTH 22 0
BBX 18 14 2 0
BITMAP
0039CEFFFFFFF2006D
08E84100000000006D
4E300000000000006D
99000000000000006D
B7000000000000006D
B7000000000000006D
BFFFFFFFFFFFE0006D
B7000000000000006D
B7000000000000006D
B7000000000000006D
B7000000000000006D
B7000000000000006D
B7000000000000006D
B7000000000000006D
ENDCHAR
STARTCHAR fl
ENCODING 64258
SWIDTH 1527 0
DWIDTH 31 0
BBX 29 14 2 0
BITMAP
0039CEFFFFFFF2006D000000000000
08E84100000000006D000000000000
4E300000000000006D000000000000
99000000000000006D000000000000
B7000000000000006D000000000000
B7000000000000006D000000000000
BFFFFFFFFFFFE0006D000000000000
B7000000000000006D000000000000
B7000000000000006D000000000000
B7000000000000006D000000000000
B7000000000000005E000000000000
B7000000000000002F300000000000
B70000000000000009D62000000000
B700000000000000006BEFFFFFFF50
ENDCHAR
STARTCHAR .notdef
ENCODING -1
SWIDTH 1000 0
DWIDTH 20 0
BBX 1 1 0 0
BITMAP
00
ENDCHAR
ENDFONT
